<?xml version="1.0" encoding="UTF-8" standalone="no"?>
<!-- Created with Inkscape (http://www.inkscape.org/) -->

<svg
   width="122.00002mm"
   height="38mm"
   viewBox="0 0 121.99999 38"
   version="1.1"
   id="svg1"
   xml:space="preserve"
   inkscape:version="1.4.2 (2aeb623e1d, 2025-05-12)"
   sodipodi:docname="logo.svg"
   xmlns:inkscape="http://www.inkscape.org/namespaces/inkscape"
   xmlns:sodipodi="http://sodipodi.sourceforge.net/DTD/sodipodi-0.dtd"
   xmlns:xlink="http://www.w3.org/1999/xlink"
   xmlns="http://www.w3.org/2000/svg"
   xmlns:svg="http://www.w3.org/2000/svg"><sodipodi:namedview
     id="namedview1"
     pagecolor="#505050"
     bordercolor="#eeeeee"
     borderopacity="1"
     inkscape:showpageshadow="0"
     inkscape:pageopacity="0"
     inkscape:pagecheckerboard="0"
     inkscape:deskcolor="#505050"
     inkscape:document-units="mm"
     inkscape:zoom="1.473069"
     inkscape:cx="222.66438"
     inkscape:cy="124.23043"
     inkscape:window-width="1440"
     inkscape:window-height="831"
     inkscape:window-x="0"
     inkscape:window-y="0"
     inkscape:window-maximized="1"
     inkscape:current-layer="layer1"
     showgrid="false" /><defs
     id="defs1"><linearGradient
       id="linearGradient37"
       inkscape:collect="always"><stop
         style="stop-color:#8c1eff;stop-opacity:1;"
         offset="0.15000001"
         id="stop37" /><stop
         style="stop-color:#ff901f;stop-opacity:1;"
         offset="0.80000001"
         id="stop38" /></linearGradient><rect
       x="65.434845"
       y="-239.17564"
       width="399.3782"
       height="204.20184"
       id="rect1" /><rect
       x="320.06757"
       y="585.44208"
       width="265.0509"
       height="42.071571"
       id="rect57482" /><rect
       x="276.43774"
       y="273.69165"
       width="364.31195"
       height="151.30833"
       id="rect3509" /><rect
       x="65.434845"
       y="-239.17564"
       width="399.3782"
       height="204.20184"
       id="rect3" /><linearGradient
       inkscape:collect="always"
       xlink:href="#linearGradient37"
       id="linearGradient39"
       gradientUnits="userSpaceOnUse"
       x1="168.54701"
       y1="139.21864"
       x2="168.54701"
       y2="101.21864" /></defs><g
     inkscape:label="Layer 1"
     inkscape:groupmode="layer"
     id="layer1"
     transform="translate(-149.54672,-101.21864)"><path
       id="path2"
       style="font-weight:bold;font-family:Aileron;-inkscape-font-specification:'Aileron Bold';white-space:pre;fill:url(#linearGradient39);fill-opacity:1;stroke-width:2.37841"
       d="M 168.54711 101.21864 A 18.999971 18.999971 0 0 0 149.54672 120.21851 A 18.999971 18.999971 0 0 0 150.26709 125.40011 L 186.82662 125.40011 A 18.999971 18.999971 0 0 0 187.54647 120.21851 A 18.999971 18.999971 0 0 0 168.54711 101.21864 z M 220.03027 101.40312 L 220.03027 122.38066 L 223.96905 122.38066 L 223.96905 120.35442 L 224.96796 121.92384 C 225.73857 122.46612 227.2799 122.78011 228.5357 122.78011 C 232.4458 122.78011 235.81381 119.98296 235.81381 114.5031 C 235.81381 110.02218 233.30196 106.79711 229.04936 106.79711 C 227.50815 106.79711 225.9668 107.1684 225.11058 107.85338 L 223.96905 109.50857 L 223.96905 101.40312 L 220.03027 101.40312 z M 240.35151 101.54575 C 239.06717 101.54575 238.18265 102.40209 238.18265 103.62935 C 238.18265 104.88515 239.06717 105.71294 240.35151 105.71294 C 241.63586 105.71294 242.52089 104.88515 242.52089 103.62935 C 242.52089 102.40209 241.63586 101.54575 240.35151 101.54575 z M 264.46839 103.57198 L 264.46839 107.31129 L 262.24217 107.31129 L 262.24217 109.90803 L 264.46839 109.90803 L 264.46839 117.38613 C 264.46839 118.24236 264.46853 118.89843 264.52575 119.58341 C 264.69699 121.72398 265.75271 122.69433 268.69242 122.69433 C 269.57719 122.69433 270.40491 122.63753 271.28968 122.49486 L 271.28968 119.92603 C 269.09203 120.09728 268.54976 119.75496 268.43559 118.27083 C 268.40709 117.87126 268.40717 117.44304 268.40717 116.92931 L 268.40717 109.90803 L 271.54651 109.90803 L 271.54651 107.31129 L 268.40717 107.31129 L 268.40717 103.57198 L 264.46839 103.57198 z M 254.73616 106.79711 C 253.28057 106.79711 252.1672 107.08277 251.08264 107.85338 L 249.91269 109.6512 L 249.91269 107.19709 L 245.97391 107.19709 L 245.97391 122.38066 L 249.91269 122.38066 L 249.91269 115.44516 C 249.91269 111.22111 251.42556 109.56593 253.3378 109.56593 C 255.25004 109.56593 256.13457 110.65017 256.24873 112.24846 C 256.30583 113.01906 256.30609 113.73257 256.30609 114.36047 L 256.30609 122.38066 L 260.24436 122.38066 L 260.24436 113.81839 C 260.24436 112.59113 260.21586 111.82068 260.13015 111.05008 C 259.8162 108.39578 257.96128 106.79711 254.73616 106.79711 z M 199.28115 106.82605 C 198.42492 106.82605 197.42595 107.1684 196.68389 107.85338 L 195.48552 109.96539 L 195.48552 107.19709 L 191.54674 107.19709 L 191.54674 122.38066 L 195.48552 122.38066 L 195.48552 115.41674 C 195.48552 111.33539 197.11207 109.87969 200.39426 110.10802 L 200.39426 106.94025 C 200.05177 106.85465 199.7378 106.82605 199.28115 106.82605 z M 202.13524 107.19709 L 202.13524 116.15881 C 202.13524 117.38607 202.16364 118.15652 202.27787 118.92712 C 202.62036 121.01061 204.50445 122.78011 207.64395 122.78011 C 209.09954 122.78011 210.18386 122.49486 211.29696 121.75279 L 212.46691 119.81182 L 212.46691 122.38066 L 216.40569 122.38066 L 216.40569 107.19709 L 212.46691 107.19709 L 212.46691 114.9315 C 212.46691 118.35641 211.09742 119.98339 209.1281 119.98339 C 207.30148 119.98339 206.388 118.9843 206.18822 117.41455 C 206.10262 116.64395 206.07402 115.81615 206.07402 115.33096 L 206.07402 107.19709 L 202.13524 107.19709 z M 238.38212 107.19709 L 238.38212 122.38066 L 242.3209 122.38066 L 242.3209 107.19709 L 238.38212 107.19709 z M 227.90783 109.56593 C 230.24818 109.56593 231.7324 111.64949 231.7324 114.76045 C 231.7324 118.27098 230.04847 120.01181 227.7652 120.01181 C 225.93858 120.01181 223.96905 118.78441 223.96905 115.33096 L 223.96905 114.61731 C 223.96905 110.907 225.73872 109.56593 227.90783 109.56593 z M 150.43969 125.97579 A 18.999971 18.999971 0 0 0 151.08306 127.70281 L 186.01064 127.70281 A 18.999971 18.999971 0 0 0 186.6535 125.97579 L 150.43969 125.97579 z M 211.52123 126.65016 L 211.52123 136.23614 L 213.30769 136.23614 L 213.30769 133.08853 C 213.30769 131.17134 213.99424 130.4324 214.86211 130.41944 C 215.73 130.41944 216.13168 130.91204 216.18348 131.63746 C 216.20938 131.98722 216.20983 132.31055 216.20983 132.59554 L 216.20983 136.23614 L 217.99784 136.23614 L 217.99784 132.35007 C 217.99784 131.79305 217.98505 131.44304 217.94565 131.0933 C 217.80309 129.88858 216.96095 129.1637 215.49722 129.1637 C 214.8366 129.1637 214.33166 129.29263 213.83944 129.64223 L 213.30769 130.4582 L 213.30769 126.65016 L 211.52123 126.65016 z M 235.4066 126.71476 L 235.4066 134.02129 C 235.4066 134.47466 235.40713 134.79819 235.43295 135.10908 C 235.47185 136.00291 236.02852 136.32657 236.90935 136.32657 C 237.3109 136.32657 237.6603 136.3133 238.01005 136.2749 L 238.01005 135.04397 C 237.40123 135.08287 237.24585 134.96627 237.207 134.6166 C 237.1942 134.43526 237.19408 134.25457 237.19408 133.98253 L 237.19305 126.71476 L 235.4066 126.71476 z M 256.17122 126.77987 C 255.5883 126.77987 255.18627 127.16801 255.18627 127.72503 C 255.18627 128.29501 255.5883 128.67071 256.17122 128.67071 C 256.75411 128.67071 257.15514 128.29501 257.15514 127.72503 C 257.15514 127.16801 256.75411 126.77987 256.17122 126.77987 z M 192.55701 127.69919 L 192.55701 129.39677 L 191.54674 129.39677 L 191.54674 130.57499 L 192.55701 130.57499 L 192.55701 133.9691 C 192.55701 134.35773 192.55704 134.65556 192.58285 134.96645 C 192.66065 135.938 193.13948 136.37825 194.47369 136.37825 C 194.87524 136.37825 195.25138 136.35262 195.65295 136.28782 L 195.65295 135.12148 C 194.65552 135.19928 194.40976 135.04479 194.35794 134.37114 C 194.34514 134.1898 194.3445 133.99452 194.3445 133.76136 L 194.3445 130.57499 L 195.76922 130.57499 L 195.76922 129.39677 L 194.3445 129.39677 L 194.3445 127.69919 L 192.55701 127.69919 z M 151.3957 128.39373 A 18.999971 18.999971 0 0 0 152.2618 130.00603 L 184.8319 130.00603 A 18.999971 18.999971 0 0 0 185.698 128.39373 L 151.3957 128.39373 z M 199.7974 129.1637 C 197.68603 129.16371 196.29994 130.70524 196.29994 132.81671 C 196.29994 135.23909 197.76411 136.41753 199.65529 136.41753 C 201.27447 136.41753 202.56996 135.60124 202.91969 133.99493 L 201.1322 133.99493 C 201.01556 134.73332 200.45831 135.16075 199.69405 135.16075 C 198.86503 135.16075 198.21743 134.70733 198.10086 133.25648 L 202.9972 133.25648 C 203.0231 133.02332 203.02304 132.81615 203.02304 132.64773 C 203.02304 130.76943 201.90878 129.16371 199.7974 129.1637 z M 207.23312 129.1637 C 205.34194 129.1637 203.78785 130.4844 203.78785 132.84203 C 203.78785 135.22557 205.19935 136.41753 207.07758 136.41753 C 208.80038 136.41753 210.06989 135.54928 210.36781 133.85231 L 208.58033 133.85231 C 208.39899 134.72023 207.88042 135.16075 207.18093 135.16075 C 206.28714 135.16075 205.63994 134.43569 205.63994 132.72576 C 205.63994 131.15834 206.28761 130.41944 207.19436 130.41944 C 207.93269 130.41944 208.4507 130.8343 208.61908 131.83176 L 210.38073 131.83176 C 210.25113 130.30318 209.09842 129.1637 207.23312 129.1637 z M 223.54117 129.1637 C 222.88065 129.16371 222.37609 129.29266 221.88391 129.64223 L 221.35216 130.4582 L 221.35216 129.34457 L 219.56467 129.34457 L 219.56467 136.23614 L 221.35216 136.23614 L 221.35216 133.08853 C 221.35216 131.17134 222.0387 130.41944 222.90658 130.41944 C 223.77445 130.41944 224.17614 130.91204 224.22795 131.63746 C 224.25385 131.98722 224.2543 132.31055 224.2543 132.59554 L 224.2543 136.23614 L 226.04179 136.23614 L 226.04179 132.35007 C 226.04179 131.79305 226.029 131.44304 225.9896 131.0933 C 225.84706 129.88874 225.00453 129.16392 223.54117 129.1637 z M 230.71748 129.1637 C 228.42473 129.1637 227.1425 130.6913 227.1425 132.78984 C 227.1425 134.87544 228.42473 136.41753 230.71748 136.41753 C 233.01023 136.41753 234.29245 134.87544 234.29245 132.78984 C 234.29245 130.6913 233.01023 129.1637 230.71748 129.1637 z M 242.18138 129.1637 C 239.88863 129.1637 238.6064 130.6913 238.6064 132.78984 C 238.6064 134.87544 239.88863 136.41753 242.18138 136.41753 C 244.47413 136.41753 245.75635 134.87544 245.75635 132.78984 C 245.75635 130.6913 244.47413 129.1637 242.18138 129.1637 z M 249.75921 129.1637 C 247.9846 129.1637 246.45605 130.36776 246.45605 132.86787 C 246.45605 134.88868 247.66065 136.2749 249.60366 136.2749 C 250.30314 136.2749 250.92502 136.09327 251.31363 135.79534 L 251.83092 135.03156 L 251.83092 135.19951 C 251.83092 135.49746 251.83191 135.78275 251.81851 136.04184 C 251.75371 137.14293 251.07987 137.69962 249.97883 137.69962 C 249.05915 137.69962 248.46338 137.29824 248.38565 136.6635 L 248.37273 136.54723 L 246.63692 136.54723 L 246.65035 136.67591 C 246.80571 138.19153 247.93278 139.03442 249.95351 139.03442 C 252.12968 139.03442 253.52879 137.99788 253.60652 135.84753 C 253.61932 135.47186 253.61892 134.94074 253.61892 134.51325 L 253.61892 129.34457 L 251.83092 129.34457 L 251.83092 130.2639 L 251.37823 129.55231 C 251.02849 129.30618 250.32916 129.1637 249.75921 129.1637 z M 261.75382 129.1637 C 259.64246 129.16371 258.25636 130.70525 258.25636 132.81671 C 258.25636 135.23909 259.72052 136.41753 261.61171 136.41753 C 263.23089 136.41753 264.52638 135.60124 264.87611 133.99493 L 263.08811 133.99493 C 262.97147 134.73332 262.41473 135.16075 261.65047 135.16075 C 260.82146 135.16075 260.17386 134.70733 260.05729 133.25648 L 264.95363 133.25648 C 264.97953 133.02332 264.97947 132.81615 264.97947 132.64773 C 264.97947 130.76944 263.86522 129.16371 261.75382 129.1637 z M 268.67123 129.1637 C 267.02614 129.1637 265.93755 129.9663 265.93755 131.28761 C 265.93755 132.47937 266.81834 133.03649 268.10072 133.36035 C 269.29243 133.65828 269.7461 133.95629 269.7461 134.48741 C 269.7461 134.99261 269.30526 135.23827 268.73531 135.23827 C 268.11355 135.23827 267.5957 134.88889 267.45322 134.13756 L 265.66573 134.13756 C 265.86001 135.69204 267.039 136.41753 268.70999 136.41753 C 270.29029 136.41753 271.54651 135.74378 271.54651 134.3577 C 271.54651 133.08821 270.71722 132.51847 269.3053 132.15577 C 268.1654 131.87078 267.73847 131.59854 267.73847 131.08038 C 267.73847 130.6529 268.02334 130.34193 268.55444 130.34193 C 269.1503 130.34193 269.49929 130.70506 269.61588 131.3398 L 271.40388 131.3398 C 271.24852 130.08327 270.3163 129.1637 268.67123 129.1637 z M 255.27722 129.34457 L 255.27722 136.23614 L 257.06471 136.23614 L 257.06471 129.34457 L 255.27722 129.34457 z M 199.71988 130.41944 C 200.57481 130.41944 201.06781 131.00252 201.18439 132.09066 L 198.15306 132.09066 C 198.30842 130.95071 198.89086 130.41944 199.71988 130.41944 z M 230.71748 130.41944 C 231.79261 130.41944 232.44037 131.30015 232.44037 132.78984 C 232.44037 134.26659 231.79261 135.16075 230.71748 135.16075 C 229.64234 135.16075 228.9951 134.26659 228.9951 132.78984 C 228.9951 131.30015 229.64234 130.41944 230.71748 130.41944 z M 242.18138 130.41944 C 243.25651 130.41944 243.90427 131.30015 243.90427 132.78984 C 243.90427 134.26659 243.25651 135.16075 242.18138 135.16075 C 241.10626 135.16075 240.45848 134.26659 240.45848 132.78984 C 240.45848 131.30015 241.10626 130.41944 242.18138 130.41944 z M 250.10906 130.41944 C 250.93808 130.41944 251.83092 130.97699 251.83092 132.53146 L 251.83092 132.72576 C 251.83092 134.40977 251.02789 135.01813 250.04343 135.01813 C 248.98125 135.01813 248.30813 134.1243 248.30813 132.71232 C 248.30813 131.13192 249.07279 130.41944 250.10906 130.41944 z M 261.67631 130.41944 C 262.53124 130.41944 263.0232 131.00252 263.13979 132.09066 L 260.10845 132.09066 C 260.26381 130.95071 260.8473 130.41944 261.67631 130.41944 z M 152.77443 130.81218 A 18.999971 18.999971 0 0 0 153.89012 132.30873 L 183.2041 132.30873 A 18.999971 18.999971 0 0 0 184.31979 130.81218 L 152.77443 130.81218 z M 154.70196 133.23064 A 18.999971 18.999971 0 0 0 156.14477 134.61247 L 180.94945 134.61247 A 18.999971 18.999971 0 0 0 182.39174 133.23064 L 154.70196 133.23064 z M 157.45993 135.64806 A 18.999971 18.999971 0 0 0 159.47945 136.91517 L 177.61477 136.91517 A 18.999971 18.999971 0 0 0 179.63429 135.64806 L 157.45993 135.64806 z M 162.03175 138.06652 A 18.999971 18.999971 0 0 0 168.54711 139.21839 A 18.999971 18.999971 0 0 0 175.06196 138.06652 L 162.03175 138.06652 z " /></g></svg>
