<?xml version="1.0" encoding="UTF-8" standalone="no"?>
<!-- Created with Inkscape (http://www.inkscape.org/) -->

<svg
   width="123.83984mm"
   height="37mm"
   viewBox="0 0 123.83981 37"
   version="1.1"
   id="svg1"
   xml:space="preserve"
   inkscape:version="1.4.2 (2aeb623e1d, 2025-05-12)"
   sodipodi:docname="logo3.svg"
   xmlns:inkscape="http://www.inkscape.org/namespaces/inkscape"
   xmlns:sodipodi="http://sodipodi.sourceforge.net/DTD/sodipodi-0.dtd"
   xmlns="http://www.w3.org/2000/svg"
   xmlns:svg="http://www.w3.org/2000/svg"><sodipodi:namedview
     id="namedview1"
     pagecolor="#505050"
     bordercolor="#eeeeee"
     borderopacity="1"
     inkscape:showpageshadow="0"
     inkscape:pageopacity="0"
     inkscape:pagecheckerboard="0"
     inkscape:deskcolor="#505050"
     inkscape:document-units="mm"
     inkscape:zoom="0.88637786"
     inkscape:cx="333.37927"
     inkscape:cy="229.02197"
     inkscape:window-width="1440"
     inkscape:window-height="831"
     inkscape:window-x="0"
     inkscape:window-y="0"
     inkscape:window-maximized="1"
     inkscape:current-layer="layer1"
     showgrid="false" /><defs
     id="defs1"><rect
       x="65.434845"
       y="-239.17564"
       width="399.3782"
       height="204.20184"
       id="rect1" /><rect
       x="320.06757"
       y="585.44208"
       width="265.0509"
       height="42.071571"
       id="rect57482" /><rect
       x="276.43774"
       y="273.69165"
       width="364.31195"
       height="151.30833"
       id="rect3509" /><rect
       x="65.434845"
       y="-239.17564"
       width="399.3782"
       height="204.20184"
       id="rect3" /></defs><g
     inkscape:label="Layer 1"
     inkscape:groupmode="layer"
     id="layer1"
     transform="translate(-33.394634,-61.82563)"><path
       d="m 103.877,61.992079 c -1.01587,3.7e-4 -1.83931,0.8238 -1.83968,1.83968 v 5.73867 c -0.0286,-0.97375 -0.81116,-1.75652 -1.7849,-1.78542 h -3.937746 c -1.015875,3.7e-4 -1.839314,0.8238 -1.839681,1.83968 v 7.73441 c 0,1.467 -0.316907,2.35463 -0.595829,2.75022 -0.278922,0.39562 -0.4267,0.46302 -0.904338,0.46302 -0.577972,0 -0.735353,-0.11755 -0.829923,-0.20515 -0.09436,-0.0874 -0.221287,-0.27135 -0.283187,-0.75396 v -5.2e-4 -5.2e-4 -5.1e-4 -5.2e-4 c -0.07184,-0.66336 -0.09973,-1.44284 -0.09973,-1.85157 v -8.1349 c -3.67e-4,-1.01588 -0.823806,-1.83931 -1.839681,-1.83968 h -3.939812 c -0.262662,0.15654 -0.482181,0.37606 -0.63872,0.63872 -0.13101,-0.33845 -0.359165,-0.63061 -0.655774,-0.83974 -0.502374,-0.12552 -1.022825,-0.17002 -1.559078,-0.17002 -1.077542,0 -2.140596,0.40341 -3.110921,1.05678 -0.163162,-0.28578 -0.399966,-0.52258 -0.685747,-0.68574 h -3.937227 c -1.016077,8e-5 -1.83983,0.8236 -1.840198,1.83968 v 15.18357 c 8.1e-5,1.01628 0.823918,1.84012 1.840198,1.8402 h 3.937227 c 1.016078,-3.7e-4 1.839601,-0.82412 1.839681,-1.8402 v -6.96288 c 0,-1.79601 0.375523,-2.64867 0.707451,-2.99207 0.331928,-0.3434 0.886006,-0.57449 2.236039,-0.48059 0.0092,-0.003 0.01829,-0.006 0.02739,-0.009 v 4.22455 c 0,1.25566 0.02855,2.13448 0.162264,3.03702 0.0011,0.01 0.0023,0.0189 0.0036,0.0289 0.490564,2.98428 3.350843,5.39502 7.18199,5.39502 1.489914,0 2.871531,-0.3843 4.134632,-1.08986 0.163638,0.28758 0.401782,0.52573 0.689363,0.68937 h 3.937747 c 0.9948,-0.0151 1.79752,-0.81801 1.81229,-1.81281 0.0148,0.9948 0.81749,1.79771 1.81229,1.81281 h 3.93982 c 0.21345,-0.13948 0.39558,-0.32179 0.53485,-0.53537 1.28965,0.70017 2.67292,0.93586 4.03128,0.93586 2.3939,0 4.73491,-0.8831 6.43165,-2.64842 0.67492,-0.70221 1.1413,-1.62504 1.57458,-2.56883 v 2.97656 c 8e-5,1.01608 0.8236,1.83983 1.83968,1.8402 h 3.93929 c 1.00542,-0.008 1.81825,-0.82083 1.82625,-1.82625 0.008,1.00541 0.82083,1.81825 1.82624,1.82625 h 3.9393 c 1.01608,-3.7e-4 1.8396,-0.82412 1.83968,-1.8402 v -6.9355 c 0,-1.89224 0.37048,-3.01764 0.69556,-3.51348 0.32509,-0.49585 0.46509,-0.52555 0.89039,-0.52555 0.60799,0 0.749,0.12639 0.8325,0.20929 0.0835,0.0829 0.20675,0.27324 0.24185,0.76533 v 0.006 c 0.0507,0.68648 0.0527,1.34576 0.0527,1.97456 v 8.01915 c 8e-5,1.01628 0.82392,1.84012 1.8402,1.8402 h 3.93929 c 1.01608,-3.7e-4 1.8396,-0.82412 1.83968,-1.8402 v -8.56227 c 0,-0.98496 -0.0455,-1.64148 -0.0997,-2.32802 0.0772,0.0943 0.16356,0.18066 0.25786,0.25786 h 0.38706 v 5.63842 c 0,0.85344 -0.002,1.56361 0.0625,2.34404 0.10782,1.3477 0.59842,2.76485 1.74563,3.66179 1.1472,0.89694 2.58159,1.14257 4.254,1.14257 0.96315,0 1.90325,-0.0635 2.89078,-0.22273 0.89134,-0.14408 1.54651,-0.91351 1.54668,-1.81642 v -2.56987 c -5e-4,-1.072 -0.9135,-1.9167 -1.98231,-1.834 -0.76678,0.0597 -0.84298,0.0106 -0.87488,0.031 -0.0213,-0.30674 -0.0253,-0.68882 -0.0253,-1.19321 v -5.1816 h 1.30069 c 1.01608,-3.7e-4 1.8396,-0.82412 1.83968,-1.8402 v -2.5957 c -3.7e-4,-1.01587 -0.82381,-1.83931 -1.83968,-1.83968 h -1.30069 v -1.90015 c -9e-5,-1.01628 -0.82392,-1.84011 -1.8402,-1.84019 h -3.93723 c -1.01607,3.7e-4 -1.83959,0.82412 -1.83968,1.84019 v 1.90015 h -0.38706 c -1.01587,3.7e-4 -1.83931,0.82381 -1.83968,1.83968 v 0.0801 c -0.24525,-0.2972 -0.41878,-0.65078 -0.72243,-0.89607 -1.30471,-1.05396 -3.02658,-1.53944 -4.94337,-1.53944 -1.46835,0 -2.85673,0.38547 -4.11551,1.10949 -0.16616,-0.2974 -0.4116,-0.54284 -0.709,-0.709 h -3.9393 c -1.00541,0.008 -1.81824,0.82083 -1.82624,1.82624 -0.18088,-0.37551 -0.48387,-0.6785 -0.85938,-0.85938 0.67817,-0.7182 1.07229,-1.69655 1.07228,-2.69544 0,-2.11053 -1.90722,-3.92172 -4.00802,-3.92172 -2.1008,0 -4.00957,1.80922 -4.00957,3.92172 0,0.99887 0.39478,1.97776 1.07228,2.69544 -0.38274,0.18179 -0.69103,0.49008 -0.87281,0.87282 v 2.61328 c -0.32896,-0.7064 -0.6155,-1.44368 -1.11363,-2.03089 -1.4993,-1.76738 -3.78731,-2.82256 -6.37894,-2.82256 -1.12866,0 -2.21109,0.20616 -3.24011,0.56275 v -4.11551 c -3.7e-4,-1.01587 -0.82381,-1.83931 -1.83968,-1.83968 z"
       style="fill:#f9f9f9;fill-opacity:1;stroke-width:0.264583"
       id="path1-7" /><path
       d="m 87.878584,88.525294 c -0.30565,4.8e-4 -0.55399,0.24884 -0.55449,0.55449 v 2.127 c -0.43205,-0.65917 -1.18363,-1.11156 -2.12493,-1.11156 -0.72045,0 -1.41189,0.25628 -1.9141,0.75809 -0.19611,0.19597 -0.33572,0.44451 -0.45889,0.70332 -0.0927,-0.21655 -0.19266,-0.43311 -0.34985,-0.61753 -0.44089,-0.5173 -1.12419,-0.84388 -1.92546,-0.84388 -0.78037,0 -1.47638,0.29196 -1.96319,0.79323 v -0.0935 c -1.8e-4,-0.30586 -0.24867,-0.55451 -0.55448,-0.555 h -0.3359 v -0.50592 c -4.9e-4,-0.30582 -0.24914,-0.5543 -0.55501,-0.55448 h -1.11724 c -0.30565,4.8e-4 -0.554,0.24883 -0.55449,0.55448 v 0.50592 h -0.076 c -0.30603,1.8e-4 -0.55482,0.24897 -0.555,0.555 v 0.73794 c 1.8e-4,0.30603 0.24897,0.55482 0.555,0.555 h 0.076 v 1.56632 c 0,0.24198 -0.001,0.44521 0.0176,0.66972 0.0314,0.38855 0.17286,0.79893 0.50798,1.0604 0.33399,0.26062 0.75072,0.33022 1.22835,0.33022 0.27477,0 0.54238,-0.0171 0.82424,-0.0625 0.26871,-0.0436 0.46673,-0.27654 0.46664,-0.54881 v -0.1757 c 0.0173,0.0321 0.0361,0.0653 0.0646,0.0935 0.49505,0.49056 1.17605,0.71727 1.88257,0.71727 1.00265,0 1.90503,-0.51865 2.34404,-1.40663 0.11426,0.25123 0.24187,0.49151 0.42943,0.68161 0.48453,0.49107 1.16082,0.72502 1.86552,0.72502 0.63178,0 1.22457,-0.1611 1.6955,-0.51573 0.20759,-0.15633 0.38328,-0.35165 0.5271,-0.57413 v 0.42168 c 5e-4,0.30565 0.24884,0.554 0.55449,0.55449 h 1.11725 c 0.30586,-1.8e-4 0.554505,-0.24867 0.554995,-0.55449 v -1.9668 c 0,-0.53255 0.10575,-0.8466 0.1912,-0.97669 0.0445,-0.0678 0.0756,-0.0994 0.10542,-0.11524 0.0299,-0.0158 0.0641,-0.0187 0.12506,-0.0196 0.0787,8.2e-4 0.12796,0.01 0.15813,0.0196 0.0302,0.01 0.0412,0.0201 0.0506,0.0295 0.0165,0.0164 0.047,0.0605 0.0569,0.19327 v 0.002 c -2e-5,6.9e-4 -2e-5,10e-4 0,0.002 0.0144,0.19275 0.0155,0.37749 0.0155,0.55656 v 2.27531 c 4.9e-4,0.30582 0.24914,0.55431 0.55501,0.55449 h 1.11724 c 5.2e-4,1e-5 0.001,1e-5 0.002,0 0.22478,-0.0119 0.41216,-0.15804 0.48834,-0.35915 0.0762,0.2012 0.2634,0.34742 0.48835,0.35915 6.9e-4,2e-5 0.001,2e-5 0.002,0 h 1.11725 c 0.30565,-4.9e-4 0.55399,-0.24884 0.55449,-0.55449 v -1.9668 c 0,-0.53256 0.10612,-0.84951 0.19171,-0.98031 0.0452,-0.0688 0.0752,-0.10013 0.10336,-0.11523 0.0282,-0.0151 0.061,-0.0176 0.12092,-0.0176 0.0839,0 0.13461,0.009 0.16433,0.0191 0.0297,0.0101 0.0393,0.0203 0.0506,0.0315 0.0165,0.0164 0.047,0.0605 0.0568,0.19327 v 0.002 c -2e-5,6.9e-4 -2e-5,0.001 0,0.002 0.0139,0.19289 0.0155,0.37755 0.0155,0.55656 v 2.27531 c 4.9e-4,0.30565 0.24884,0.554 0.55449,0.55449 h 1.11724 c 0.30587,-1.8e-4 0.554,-0.24867 0.55449,-0.55449 v -0.64079 c 0.0855,0.17237 0.17482,0.34384 0.31058,0.48835 0.4905,0.52214 1.21732,0.82062 2.058792,0.82062 0.841459,0 1.568289,-0.29848 2.058789,-0.82062 0.14618,-0.15562 0.24238,-0.34222 0.33383,-0.52917 1.4e-4,0.002 -1.6e-4,0.004 0,0.006 v 0.002 c 0.0187,0.3911 0.18061,0.77463 0.48059,1.00201 0.29948,0.22697 0.65279,0.28318 0.9958,0.28318 0.26097,0 0.50052,-0.005 0.74828,-0.0331 0.28131,-0.0312 0.49445,-0.26988 0.49402,-0.55294 v -0.17208 c 0.49042,0.51843 1.21436,0.81494 2.05259,0.81494 0.84147,0 1.56829,-0.29848 2.05879,-0.82062 0.17093,-0.18196 0.28057,-0.40266 0.38447,-0.62322 0.072,0.15303 0.15213,0.30101 0.25425,0.43563 -0.2812,0.0456 -0.48821,0.29926 -0.46509,0.59015 l 0.008,0.078 c -6e-5,0.001 -6e-5,0.002 0,0.004 0.0615,0.59978 0.3482,1.14227 0.82269,1.48467 0.47345,0.34164 1.08635,0.48627 1.79473,0.48627 0.768,0 1.46456,-0.18161 1.9885,-0.61908 0.4379,-0.36561 0.71353,-0.90037 0.81029,-1.52549 0.069,0.22812 0.27898,0.39596 0.52917,0.39636 h 1.11724 c 0.30587,-1.8e-4 0.55451,-0.24867 0.55501,-0.55449 v -0.66197 c 0.10929,0.22552 0.23167,0.44201 0.40411,0.61288 0.49505,0.49056 1.17604,0.71727 1.88257,0.71727 0.9144,0 1.76036,-0.42044 2.23862,-1.16634 0.14289,0.28237 0.32529,0.53728 0.57774,0.71675 0.4533,0.32227 1.01729,0.44959 1.61954,0.44959 0.57241,0 1.11992,-0.11446 1.56632,-0.41238 0.44852,-0.29932 0.76171,-0.82713 0.76171,-1.42989 0,-0.51915 -0.20215,-0.9969 -0.55087,-1.31206 -0.0146,-0.0132 -0.031,-0.0181 -0.047,-0.0258 0.30953,-0.0267 0.54284,-0.30254 0.50385,-0.61702 -0.0632,-0.51074 -0.29744,-0.99252 -0.69712,-1.33015 -0.39962,-0.33757 -0.94292,-0.51573 -1.56063,-0.51573 -0.60438,0 -1.15416,0.14484 -1.57768,0.46922 -0.27645,0.21175 -0.44395,0.51926 -0.54932,0.85318 -0.0762,-0.16439 -0.14783,-0.33367 -0.2713,-0.47852 -0.44089,-0.5173 -1.12471,-0.84388 -1.92598,-0.84388 -0.79532,0 -1.50425,0.30153 -1.99213,0.82062 -0.16455,0.1751 -0.27862,0.3856 -0.3824,0.60152 v -0.75396 c -2.4e-4,-0.005 -0.002,-0.0107 -0.004,-0.0155 -0.0491,-0.1075 -0.13372,-0.1906 -0.23616,-0.24804 0.18046,-0.20516 0.29662,-0.47014 0.29662,-0.74828 0,-0.61945 -0.55324,-1.14618 -1.16995,-1.14618 -0.61672,0 -1.16995,0.52673 -1.16995,1.14618 0,0.27814 0.11668,0.54312 0.29713,0.74828 -0.0723,0.0405 -0.13017,0.0965 -0.17776,0.16381 -0.0474,-0.25832 -0.27336,-0.45459 -0.54519,-0.45475 h -1.11724 c -0.007,1.2e-4 -0.0134,0.002 -0.0191,0.006 -0.055,0.036 -0.10149,0.0842 -0.14056,0.13695 -0.3651,-0.19158 -0.7553,-0.25632 -1.13482,-0.25632 -0.68027,0 -1.35232,0.23733 -1.84381,0.73639 -0.19183,0.19479 -0.32772,0.44409 -0.44752,0.70538 -0.10427,-0.2222 -0.21428,-0.44414 -0.38654,-0.62683 -0.49127,-0.52103 -1.21866,-0.81494 -2.05879,-0.81494 -0.84013,0 -1.567,0.29391 -2.05827,0.81494 -0.23026,0.24419 -0.38827,0.53745 -0.50385,0.85318 v -2.64429 c -1.9e-4,-0.30603 -0.24897,-0.55482 -0.555,-0.555 h -1.11725 c -0.30582,4.9e-4 -0.5543,0.24914 -0.55448,0.555 v 2.29082 c -0.0869,-0.17616 -0.17764,-0.35268 -0.31626,-0.49971 -0.49128,-0.52103 -1.21867,-0.81494 -2.058789,-0.81494 -0.840132,0 -1.567522,0.29391 -2.058792,0.81494 -0.17958,0.19044 -0.30118,0.41932 -0.40825,0.65422 -0.0903,-0.40016 -0.27726,-0.77129 -0.59531,-1.02733 -0.37791,-0.30421 -0.87521,-0.44183 -1.4242,-0.44183 -0.40787,0 -0.78202,0.13501 -1.13068,0.32815 -0.0532,-0.0888 -0.12623,-0.16332 -0.21859,-0.21084 -0.005,-0.003 -0.0115,-0.004 -0.0176,-0.004 h -1.11725 c -0.30603,1.8e-4 -0.55482,0.24845 -0.555,0.55449 v 0.63872 c -0.10385,-0.33799 -0.28893,-0.64337 -0.56431,-0.86507 -0.37791,-0.30422 -0.87469,-0.44183 -1.42368,-0.44183 -0.29772,0 -0.5548,0.13011 -0.81236,0.23255 v -1.24799 c -4.9e-4,-0.30582 -0.249135,-0.55432 -0.554995,-0.55449 z"
       style="fill:#f9f9f9;fill-opacity:1;stroke-width:0.264583"
       id="path1" /><circle
       style="fill:#ffffff;fill-opacity:1;stroke-width:0.293547"
       id="circle1"
       cx="51.894634"
       cy="80.32563"
       r="18.5" /><path
       style="font-weight:bold;font-family:Aileron;-inkscape-font-specification:'Aileron Bold';white-space:pre"
       d="m 69.443547,-234.97578 c -0.36,0 -0.78,0.144 -1.092,0.432 l -0.504,0.888 v -1.164 h -1.656 v 6.384 h 1.656 v -2.928 c 0,-1.716 0.684,-2.328 2.064,-2.232 v -1.332 c -0.144,-0.036 -0.276,-0.048 -0.468,-0.048 z m 7.19999,0.156 h -1.656 v 3.252 c 0,1.44 -0.576,2.124 -1.404,2.124 -0.768,0 -1.152,-0.42 -1.236,-1.08 -0.036,-0.324 -0.048,-0.672 -0.048,-0.876 v -3.42 h -1.656 v 3.768 c 0,0.516 0.012,0.84 0.06,1.164 0.144,0.876 0.936,1.62 2.256,1.62 0.612,0 1.068,-0.12 1.536,-0.432 l 0.492,-0.816 v 1.08 h 1.656 z m 5.315977,-0.168 c -0.648,0 -1.296,0.156 -1.656,0.444 l -0.48,0.696 v -3.408 h -1.656 v 8.82 h 1.656 v -0.852 l 0.42,0.66 c 0.324,0.228 0.972,0.36 1.5,0.36 1.644,0 3.06,-1.176 3.06,-3.48 0,-1.884 -1.056,-3.24 -2.844,-3.24 z m -0.54,5.556 c -0.768,0 -1.596,-0.516 -1.596,-1.968 v -0.3 c 0,-1.56 0.744,-2.124 1.656,-2.124 0.984,0 1.608,0.876 1.608,2.184 0,1.476 -0.708,2.208 -1.668,2.208 z m 5.291996,-7.764 c -0.54,0 -0.912,0.36 -0.912,0.876 0,0.528 0.372,0.876 0.912,0.876 0.54,0 0.912,-0.348 0.912,-0.876 0,-0.516 -0.372,-0.876 -0.912,-0.876 z m 0.828,8.76 v -6.384 h -1.656 v 6.384 z m 7.487986,-4.764 c -0.132,-1.116 -0.912,-1.788 -2.268,-1.788 -0.612,0 -1.08,0.12 -1.536,0.444 l -0.492,0.756 v -1.032 h -1.656 v 6.384 h 1.656 v -2.916 c 0,-1.776 0.636,-2.472 1.44,-2.472 0.804,0 1.176,0.456 1.224,1.128 0.024,0.324 0.024,0.624 0.024,0.888 v 3.372 h 1.656 v -3.6 c 0,-0.516 -0.012,-0.84 -0.048,-1.164 z m 3.479981,-0.48 h 1.32 v -1.092 h -1.32 v -1.572 h -1.656 v 1.572 h -0.936 v 1.092 h 0.936 v 3.144 c 0,0.36 0,0.636 0.024,0.924 0.072,0.9 0.516,1.308 1.752,1.308 0.372,0 0.72,-0.024 1.092,-0.084 v -1.08 c -0.924,0.072 -1.152,-0.072 -1.2,-0.696 -0.012,-0.168 -0.012,-0.348 -0.012,-0.564 z"
       id="text1"
       transform="matrix(2.3784094,0,0,2.3784094,-82.035955,628.12345)"
       aria-label="rubint" /><path
       style="font-weight:bold;font-family:Aileron;-inkscape-font-specification:'Aileron Bold';white-space:pre"
       d="m 68.171547,-233.67978 h 1.32 v -1.092 h -1.32 v -1.572 h -1.656 v 1.572 h -0.936 v 1.092 h 0.936 v 3.144 c 0,0.36 0,0.636 0.024,0.924 0.072,0.9 0.516,1.308 1.752,1.308 0.372,0 0.72,-0.024 1.092,-0.084 v -1.08 c -0.924,0.072 -1.152,-0.072 -1.2,-0.696 -0.012,-0.168 -0.012,-0.348 -0.012,-0.564 z m 8.039968,1.92 c 0,-1.74 -1.032,-3.228 -2.988,-3.228 -1.956,0 -3.24,1.428 -3.24,3.384 0,2.244 1.356,3.336 3.108,3.336 1.5,0 2.7,-0.756 3.024,-2.244 h -1.656 c -0.108,0.684 -0.624,1.08 -1.332,1.08 -0.768,0 -1.368,-0.42 -1.476,-1.764 h 4.536 c 0.024,-0.216 0.024,-0.408 0.024,-0.564 z m -3.06,-2.064 c 0.792,0 1.248,0.54 1.356,1.548 h -2.808 c 0.144,-1.056 0.684,-1.548 1.452,-1.548 z m 6.95999,-1.164 c -1.752,0 -3.192,1.224 -3.192,3.408 0,2.208 1.308,3.312 3.048,3.312 1.596,0 2.772,-0.804 3.048,-2.376 h -1.656 c -0.168,0.804 -0.648,1.212 -1.296,1.212 -0.828,0 -1.428,-0.672 -1.428,-2.256 0,-1.452 0.6,-2.136 1.44,-2.136 0.684,0 1.164,0.384 1.32,1.308 h 1.632 c -0.12,-1.416 -1.188,-2.472 -2.916,-2.472 z m 9.923987,1.788 c -0.132,-1.116 -0.912,-1.788 -2.268,-1.788 -0.612,0 -1.08,0.12 -1.536,0.444 l -0.492,0.756 v -3.528 h -1.656 v 8.88 h 1.656 v -2.916 c 0,-1.776 0.636,-2.46 1.44,-2.472 0.804,0 1.176,0.456 1.224,1.128 0.024,0.324 0.024,0.624 0.024,0.888 v 3.372 h 1.656 v -3.6 c 0,-0.516 -0.012,-0.84 -0.048,-1.164 z m 7.45198,0 c -0.132,-1.116 -0.912,-1.788 -2.268,-1.788 -0.612,0 -1.08,0.12 -1.536,0.444 l -0.492,0.756 v -1.032 h -1.656 v 6.384 h 1.656 v -2.916 c 0,-1.776 0.636,-2.472 1.44,-2.472 0.804,0 1.176,0.456 1.224,1.128 0.024,0.324 0.024,0.624 0.024,0.888 v 3.372 h 1.656 v -3.6 c 0,-0.516 -0.012,-0.84 -0.048,-1.164 z m 4.379978,-1.788 c -2.123997,0 -3.311997,1.416 -3.311997,3.36 0,1.932 1.188,3.36 3.311997,3.36 2.124,0 3.312,-1.428 3.312,-3.36 0,-1.944 -1.188,-3.36 -3.312,-3.36 z m 0,5.556 c -0.996,0 -1.596,-0.828 -1.596,-2.196 0,-1.38 0.6,-2.196 1.596,-2.196 0.996,0 1.596,0.816 1.596,2.196 0,1.368 -0.6,2.196 -1.596,2.196 z m 5.99999,-7.824 h -1.656 v 6.768 c 0,0.42 0,0.72 0.024,1.008 0.036,0.828 0.552,1.128 1.368,1.128 0.372,0 0.696,-0.012 1.02,-0.048 v -1.14 c -0.564,0.036 -0.708,-0.072 -0.744,-0.396 -0.012,-0.168 -0.012,-0.336 -0.012,-0.588 z m 4.61999,2.268 c -2.124,0 -3.312,1.416 -3.312,3.36 0,1.932 1.188,3.36 3.312,3.36 2.124,0 3.312,-1.428 3.312,-3.36 0,-1.944 -1.188,-3.36 -3.312,-3.36 z m 0,5.556 c -0.996,0 -1.596,-0.828 -1.596,-2.196 0,-1.38 0.6,-2.196 1.596,-2.196 0.996,0 1.596,0.816 1.596,2.196 0,1.368 -0.6,2.196 -1.596,2.196 z m 10.59599,-5.388 h -1.656 v 0.852 l -0.42,-0.66 c -0.324,-0.228 -0.972,-0.36 -1.5,-0.36 -1.644,0 -3.06,1.116 -3.06,3.432 0,1.872 1.116,3.156 2.916,3.156 0.648,0 1.224,-0.168 1.584,-0.444 l 0.48,-0.708 v 0.156 c 0,0.276 0,0.54 -0.012,0.78 -0.06,1.02 -0.684,1.536 -1.704,1.536 -0.852,0 -1.404,-0.372 -1.476,-0.96 l -0.012,-0.108 h -1.608 l 0.012,0.12 c 0.144,1.404 1.188,2.184 3.06,2.184 2.016,0 3.312,-0.96 3.384,-2.952 0.012,-0.348 0.012,-0.84 0.012,-1.236 z m -3.312,5.256 c -0.984,0 -1.608,-0.828 -1.608,-2.136 0,-1.464 0.708,-2.124 1.668,-2.124 0.768,0 1.596,0.516 1.596,1.956 v 0.18 c 0,1.56 -0.744,2.124 -1.656,2.124 z m 5.67598,-7.632 c -0.54,0 -0.912,0.36 -0.912,0.876 0,0.528 0.372,0.876 0.912,0.876 0.54,0 0.912,-0.348 0.912,-0.876 0,-0.516 -0.372,-0.876 -0.912,-0.876 z m 0.828,8.76 v -6.384 h -1.656 v 6.384 z m 7.33199,-3.324 c 0,-1.74 -1.032,-3.228 -2.988,-3.228 -1.956,0 -3.24,1.428 -3.24,3.384 0,2.244 1.356,3.336 3.108,3.336 1.5,0 2.7,-0.756 3.024,-2.244 h -1.656 c -0.108,0.684 -0.624,1.08 -1.332,1.08 -0.768,0 -1.368,-0.42 -1.476,-1.764 h 4.536 c 0.024,-0.216 0.024,-0.408 0.024,-0.564 z m -3.06,-2.064 c 0.792,0 1.248,0.54 1.356,1.548 h -2.808 c 0.144,-1.056 0.684,-1.548 1.452,-1.548 z m 6.47999,-1.164 c -1.524,0 -2.532,0.744 -2.532,1.968 0,1.104 0.816,1.62 2.004,1.92 1.104,0.276 1.524,0.552 1.524,1.044 0,0.468 -0.408,0.696 -0.936,0.696 -0.576,0 -1.056,-0.324 -1.188,-1.02 h -1.656 c 0.18,1.44 1.272,2.112 2.82,2.112 1.464,0 2.628,-0.624 2.628,-1.908 0,-1.176 -0.768,-1.704 -2.076,-2.04 -1.056,-0.264 -1.452,-0.516 -1.452,-0.996 0,-0.396 0.264,-0.684 0.756,-0.684 0.552,0 0.876,0.336 0.984,0.924 h 1.656 c -0.144,-1.164 -1.008,-2.016 -2.532,-2.016 z"
       id="text2"
       aria-label="technologies"
       transform="matrix(0.67465597,0,0,0.67468663,31.151009,249.19299)" /><circle
       style="fill:#a4161a;fill-opacity:1;stroke-width:0.261812"
       id="path3"
       cx="51.894634"
       cy="80.32563"
       r="16.5" /></g></svg>
