<?xml version="1.0" encoding="UTF-8" standalone="no"?>
<!-- Created with Inkscape (http://www.inkscape.org/) -->

<svg
   width="115.23293mm"
   height="50.617081mm"
   viewBox="0 0 115.23292 50.61708"
   version="1.1"
   id="svg1"
   xml:space="preserve"
   inkscape:version="1.4.2 (2aeb623e1d, 2025-05-12)"
   sodipodi:docname="logo.svg"
   xmlns:inkscape="http://www.inkscape.org/namespaces/inkscape"
   xmlns:sodipodi="http://sodipodi.sourceforge.net/DTD/sodipodi-0.dtd"
   xmlns="http://www.w3.org/2000/svg"
   xmlns:svg="http://www.w3.org/2000/svg"><sodipodi:namedview
     id="namedview1"
     pagecolor="#505050"
     bordercolor="#eeeeee"
     borderopacity="1"
     inkscape:showpageshadow="0"
     inkscape:pageopacity="0"
     inkscape:pagecheckerboard="0"
     inkscape:deskcolor="#505050"
     inkscape:document-units="mm"
     inkscape:zoom="1.7727557"
     inkscape:cx="277.81606"
     inkscape:cy="137.63882"
     inkscape:window-width="1440"
     inkscape:window-height="831"
     inkscape:window-x="0"
     inkscape:window-y="0"
     inkscape:window-maximized="1"
     inkscape:current-layer="layer1" /><defs
     id="defs1"><rect
       x="320.06757"
       y="585.44208"
       width="265.0509"
       height="42.071571"
       id="rect57482" /><rect
       x="276.43774"
       y="273.69165"
       width="364.31195"
       height="151.30833"
       id="rect3509" /></defs><g
     inkscape:label="Layer 1"
     inkscape:groupmode="layer"
     id="layer1"
     transform="translate(-47.856911,-123.54481)"><path
       id="rect4"
       style="opacity:1;fill:#f9f9f9;fill-opacity:1;stroke-width:0.200651"
       d="m 86.996541,163.71082 c -0.464657,-4e-5 -0.843566,0.37935 -0.843876,0.84387 v 1.94149 c -0.522494,-0.58579 -1.261808,-0.97876 -2.144572,-0.97876 -1.042031,0 -1.962946,0.59399 -2.535245,1.50224 -0.07822,-0.17699 -0.164229,-0.35535 -0.296623,-0.51573 -0.514236,-0.62295 -1.316181,-0.98651 -2.203483,-0.98651 -0.766828,0 -1.476815,0.28226 -2.029334,0.76172 -0.108058,-0.3421 -0.41611,-0.59506 -0.792716,-0.59532 h -0.07028 v -0.29145 c -3.1e-4,-0.46453 -0.379219,-0.8434 -0.843876,-0.84336 h -0.792717 c -0.464658,-4e-5 -0.843566,0.37883 -0.843876,0.84336 v 0.36742 c -0.356863,0.0847 -0.632426,0.3826 -0.654224,0.75964 a 0.14926479,0.14926479 0 0 0 0,0.008 v 0.60978 a 0.14926479,0.14926479 0 0 0 0,0.008 c 0.02179,0.37704 0.297366,0.6749 0.654224,0.75964 v 2.08204 c 0,0.27325 -8.38e-4,0.47333 0.01189,0.65836 -3e-6,0.002 -4e-6,0.002 0,0.004 v 0.006 a 0.14926479,0.14926479 0 0 0 0,0.006 c 0.03358,0.44322 0.190996,0.91235 0.562239,1.23249 0.368352,0.31765 0.828282,0.40411 1.247986,0.40411 0.24606,0 0.513915,-0.0102 0.804602,-0.0568 0.327099,-0.0522 0.577497,-0.29051 0.668176,-0.59531 0.5508,0.47007 1.252811,0.70693 1.976624,0.70693 0.64932,0 1.312622,-0.16687 1.867069,-0.5705 0.282861,-0.20591 0.487704,-0.4951 0.664043,-0.80667 0.08406,0.17394 0.176317,0.34834 0.316259,0.49816 0.569885,0.61007 1.373033,0.87901 2.169894,0.87901 0.688036,0 1.357792,-0.17983 1.898592,-0.59014 0.137151,-0.10406 0.259372,-0.22504 0.371037,-0.35502 0.01569,0.45124 0.383234,0.81601 0.838191,0.81597 h 0.794784 c 0.464412,-3.2e-4 0.843566,-0.37894 0.843876,-0.84336 v -2.1487 c 0,-0.72487 0.156303,-1.10483 0.255798,-1.24024 0.05757,-0.0784 0.09334,-0.10826 0.132809,-0.12661 0.03947,-0.0183 0.09666,-0.0292 0.198954,-0.0315 0.110145,-0.003 0.166081,0.009 0.185518,0.0155 0.0073,0.002 0.0096,0.003 0.01034,0.003 h 5.17e-4 v 5.2e-4 5.1e-4 c 8.03e-4,0.001 0.0033,0.005 0.0083,0.01 l 5.17e-4,5.2e-4 c 0.0041,0.007 0.03845,0.0593 0.04909,0.1912 0.01536,0.21112 0.0155,0.38465 0.0155,0.63304 v 2.69337 c 3.1e-4,0.46453 0.379215,0.8434 0.843876,0.84336 h 0.792717 a 0.14926479,0.14926479 0 0 0 0.0062,0 c 0.281424,-0.0109 0.516449,-0.16712 0.661975,-0.3886 0.14601,0.22189 0.381982,0.37835 0.664042,0.3886 a 0.14926479,0.14926479 0 0 0 0.0057,0 h 0.793233 c 0.464412,-3.2e-4 0.843049,-0.37894 0.843359,-0.84336 v -2.1487 c 0,-0.72466 0.158137,-1.11343 0.257866,-1.25006 0.05835,-0.0799 0.09329,-0.10952 0.127124,-0.12505 0.03383,-0.0155 0.08367,-0.0233 0.181384,-0.0233 0.113806,0 0.174939,0.0127 0.201538,0.0217 0.0266,0.009 0.01623,0.005 0.02894,0.0176 0.0023,0.002 0.03345,0.0386 0.04496,0.18138 0.01541,0.21073 0.01602,0.38445 0.01602,0.63304 v 2.69337 c 3.09e-4,0.46442 0.378942,0.84305 0.843359,0.84336 h 0.795301 c 0.464412,-3.2e-4 0.843049,-0.37894 0.843359,-0.84336 v -0.15658 c 0.0151,0.0207 0.01644,0.0407 0.03359,0.061 0.560588,0.66147 1.444162,1.06815 2.480468,1.06815 1.036491,0 1.920431,-0.40858 2.480471,-1.07022 0.06,-0.0709 0.0776,-0.13744 0.11679,-0.21084 0.0812,0.33262 0.21963,0.6489 0.49247,0.86093 0.3689,0.28674 0.78023,0.32815 1.09761,0.32815 0.21024,0 0.44921,-0.007 0.69711,-0.0465 0.34066,-0.0554 0.59528,-0.31507 0.67387,-0.63872 0.54486,0.47079 1.26695,0.77721 2.12338,0.77721 0.95176,0 1.76196,-0.35534 2.32389,-0.92397 -0.0249,0.0818 -0.0384,0.16723 -0.0372,0.2558 a 0.14926479,0.14926479 0 0 0 0,0.0139 l 0.01,0.0935 c 0.0687,0.6898 0.37716,1.3505 0.93741,1.77767 0.5572,0.42484 1.27475,0.5917 2.08825,0.5917 0.85728,0 1.65805,-0.23747 2.24585,-0.77928 0.42303,-0.38993 0.69539,-0.91402 0.82838,-1.5043 0.15444,0.20462 0.38722,0.34573 0.66197,0.34571 h 0.79272 c 0.46466,4e-5 0.84356,-0.37884 0.84387,-0.84336 v -0.1664 c 0.0527,0.0833 0.10043,0.16812 0.17002,0.24237 0.5728,0.61108 1.383,0.89658 2.20503,0.89658 0.64933,0 1.31263,-0.16687 1.86707,-0.5705 0.20378,-0.14834 0.37232,-0.34065 0.52555,-0.54674 0.14571,0.22131 0.31369,0.4237 0.52142,0.58032 0.52257,0.39403 1.15983,0.53692 1.7911,0.53692 0.64052,0 1.26575,-0.13324 1.78336,-0.50022 0.52636,-0.37319 0.87695,-1.01868 0.87695,-1.72651 0,-0.54373 -0.20214,-1.07529 -0.56276,-1.47278 0.32593,-0.14349 0.5442,-0.48408 0.50384,-0.86093 a 0.14926479,0.14926479 0 0 0 0,-0.002 c -0.0694,-0.61192 -0.32657,-1.2057 -0.80046,-1.63091 -0.47434,-0.42561 -1.12639,-0.64079 -1.83813,-0.64079 -0.65237,0 -1.27671,0.17222 -1.75959,0.57258 -0.21377,0.17724 -0.35764,0.40835 -0.47645,0.65216 -0.0389,-0.0823 -0.0603,-0.15734 -0.12713,-0.23823 -0.51423,-0.62295 -1.31567,-0.98651 -2.20296,-0.98651 -0.88222,0 -1.7095,0.34769 -2.28514,0.97307 -0.077,0.0837 -0.13312,0.17803 -0.19172,0.2713 v -0.2713 a 0.14926479,0.14926479 0 0 0 -0.0196,-0.0744 c -0.0465,-0.08 -0.12413,-0.13289 -0.19327,-0.19327 0.19058,-0.2326 0.32453,-0.51419 0.32453,-0.83044 0,-0.7321 -0.62331,-1.34927 -1.35186,-1.34927 -0.72855,0 -1.35134,0.61717 -1.35134,1.34927 0,0.16523 0.0397,0.32166 0.0977,0.46922 -0.14828,-0.12853 -0.3346,-0.21499 -0.54519,-0.21497 h -0.79271 a 0.14926479,0.14926479 0 0 0 -0.0822,0.0232 c -0.0587,0.0389 -0.10128,0.0964 -0.14831,0.14831 -0.41453,-0.20442 -0.84312,-0.30076 -1.26401,-0.30076 -0.81997,0 -1.64846,0.28025 -2.26342,0.89091 -0.1657,0.16452 -0.28147,0.36184 -0.38861,0.56224 -0.0616,-0.13093 -0.13248,-0.2618 -0.23823,-0.38654 -0.56068,-0.66146 -1.44326,-1.06661 -2.4784,-1.06661 -1.03515,0 -1.91824,0.40515 -2.47892,1.06661 -0.0875,0.10328 -0.15261,0.21581 -0.21859,0.32814 v -2.31252 c 4e-5,-0.46476 -0.37911,-0.84391 -0.84388,-0.84387 h -0.79271 c -0.46477,-4e-5 -0.84391,0.37911 -0.84388,0.84387 v 2.02933 c -0.0117,-0.0154 -0.0125,-0.0298 -0.0253,-0.045 -0.56068,-0.66146 -1.44326,-1.06661 -2.478401,-1.06661 -1.035156,0 -1.919218,0.40529 -2.480468,1.06661 -0.126252,0.14876 -0.21774,0.30927 -0.29714,0.47284 -0.105941,-0.34973 -0.250431,-0.69024 -0.546737,-0.94362 -0.473653,-0.40504 -1.108177,-0.59583 -1.794722,-0.59583 -0.446818,0 -0.864775,0.18874 -1.261938,0.39068 -0.07256,-0.0922 -0.141348,-0.19053 -0.24598,-0.24598 a 0.14926479,0.14926479 0 0 0 -0.07028,-0.0155 h -0.793233 c -0.46452,3.1e-4 -0.843908,0.37922 -0.843877,0.84387 v 0.21291 c -0.118423,-0.21974 -0.264532,-0.42453 -0.460953,-0.59221 -0.474167,-0.40482 -1.108433,-0.59377 -1.794723,-0.59377 -0.28062,0 -0.513661,0.1169 -0.732255,0.21291 v -1.17564 c -3.1e-4,-0.46442 -0.379461,-0.84356 -0.843876,-0.84387 z m 23.333979,7.23263 c 0.003,0.005 0.005,0.009 0.008,0.0134 -0.007,0.004 -0.0149,0.007 -0.0217,0.0119 0.004,-0.009 0.01,-0.0162 0.0139,-0.0253 z" /><path
       id="path1"
       style="font-weight:900;font-size:115px;line-height:1.25;font-family:Aileron;-inkscape-font-specification:'Aileron Heavy';white-space:pre;fill:#ffffff;fill-opacity:1;stroke-width:0.264583"
       sodipodi:type="inkscape:offset"
       inkscape:radius="1.3955972"
       inkscape:original="M 127.31055 136.35156 C 125.78919 136.35156 124.78516 137.29536 124.78516 138.75586 C 124.78516 140.24679 125.78919 141.18945 127.31055 141.18945 C 128.8319 141.18945 129.86719 140.24679 129.86719 138.75586 C 129.86719 137.29536 128.8319 136.35156 127.31055 136.35156 z M 153.47852 138.66406 L 153.47852 142.74219 L 151.01367 142.74219 L 151.01367 145.78516 L 153.47852 145.78516 L 153.47852 153.23828 C 153.47852 154.15109 153.47814 154.8816 153.53906 155.70312 C 153.72162 158.07644 154.87753 159.23242 158.4375 159.23242 C 159.47202 159.23242 160.415 159.14233 161.38867 158.99023 L 161.38867 155.94727 C 158.9545 156.0994 158.40686 155.73373 158.28516 154.12109 C 158.25476 153.69511 158.25391 153.14729 158.25391 152.59961 L 158.25391 145.78516 L 161.69336 145.78516 L 161.69336 142.74219 L 158.25391 142.74219 L 158.25391 138.66406 L 153.47852 138.66406 z M 143.22461 142.19336 C 141.70326 142.19336 140.54654 142.49827 139.45117 143.22852 L 138.11328 145.17578 L 138.11328 142.62109 L 133.33398 142.62109 L 133.33398 158.83789 L 138.11328 158.83789 L 138.11328 151.32227 C 138.11328 147.18419 139.51196 145.48047 141.39844 145.48047 C 143.25449 145.48047 144.16735 146.51514 144.28906 148.1582 C 144.34996 148.97973 144.34961 149.80162 144.34961 150.41016 L 144.34961 158.83789 L 149.12695 158.83789 L 149.12695 149.67969 C 149.12695 148.37132 149.09634 147.48755 148.97461 146.66602 C 148.60949 143.8363 146.63245 142.19336 143.22461 142.19336 z M 124.9375 142.62109 L 124.9375 158.83789 L 129.71484 158.83789 L 129.71484 142.62109 L 124.9375 142.62109 z "
       d="m 127.31055,134.95508 c -1.04928,0 -2.0595,0.34327 -2.79297,1.03906 -0.73348,0.69579 -1.12891,1.71167 -1.12891,2.76172 0,1.05874 0.38881,2.08278 1.12305,2.78516 0.0195,0.0186 0.0485,0.0229 0.0684,0.041 a 1.3957368,1.3957368 0 0 0 -1.03906,1.03906 v 16.2168 a 1.3957368,1.3957368 0 0 0 1.39648,1.39648 h 4.77734 a 1.3957368,1.3957368 0 0 0 1.39649,-1.39648 v -16.2168 a 1.3957368,1.3957368 0 0 0 -1.04297,-1.04297 c 0.0138,-0.0126 0.0332,-0.0165 0.0469,-0.0293 0.74169,-0.69715 1.14844,-1.72448 1.14844,-2.79297 0,-1.06001 -0.4115,-2.08093 -1.15234,-2.77149 -0.74084,-0.69055 -1.75151,-1.02929 -2.80078,-1.02929 z m 26.16797,2.3125 a 1.3957368,1.3957368 0 0 0 -1.39649,1.39648 v 2.68164 h -1.06836 a 1.3957368,1.3957368 0 0 0 -1.39648,1.39649 v 1.36718 c -0.37613,-0.70976 -0.87884,-1.33658 -1.50977,-1.83593 -1.26995,-1.00511 -2.95462,-1.47657 -4.88281,-1.47657 -1.63117,0 -3.07485,0.38311 -4.35547,1.1836 a 1.3957368,1.3957368 0 0 0 -0.75586,-0.75586 h -4.7793 a 1.3957368,1.3957368 0 0 0 -1.39648,1.39648 v 16.2168 a 1.3957368,1.3957368 0 0 0 1.39648,1.39648 h 4.7793 a 1.3957368,1.3957368 0 0 0 1.39649,-1.39648 v -7.51562 c 0,-1.91181 0.34826,-3.13005 0.7246,-3.73633 0.37635,-0.60628 0.64096,-0.70899 1.16407,-0.70899 0.66869,0 0.94471,0.15206 1.12109,0.32422 0.17638,0.17216 0.33349,0.47384 0.37695,1.06055 0.0558,0.7527 0.0566,1.53936 0.0566,2.14844 v 8.42773 a 1.3957368,1.3957368 0 0 0 1.39649,1.39648 h 4.77734 a 1.3957368,1.3957368 0 0 0 1.39649,-1.39648 v -9.1582 c 0,-1.30269 -0.0332,-2.23889 -0.16407,-3.15235 a 1.3957368,1.3957368 0 0 0 0.6543,0.6543 h 1.06836 v 6.05664 c 0,0.91242 -0.001,1.68557 0.0644,2.56836 a 1.3957368,1.3957368 0 0 0 0.002,0.004 c 0.10722,1.39396 0.58288,2.77138 1.71875,3.65039 1.13586,0.87901 2.63927,1.16797 4.57031,1.16797 1.11554,0 2.13961,-0.0994 3.16602,-0.25977 a 1.3957368,1.3957368 0 0 0 1.18164,-1.37891 v -3.04296 a 1.3957368,1.3957368 0 0 0 -1.48438,-1.39258 c -1.09138,0.0682 -1.54297,-0.0667 -1.54297,-0.0527 -0.0212,-0.0686 -0.0583,-0.20091 -0.0801,-0.48047 v -0.006 c -0.0242,-0.34322 -0.0273,-0.87202 -0.0273,-1.41601 v -5.41797 h 2.04297 a 1.3957368,1.3957368 0 0 0 1.39648,-1.39648 v -3.04297 a 1.3957368,1.3957368 0 0 0 -1.39648,-1.39649 h -2.04297 v -2.68164 a 1.3957368,1.3957368 0 0 0 -1.39648,-1.39648 z m -3.12305,9.19336 c 0.001,0.009 0.001,0.0208 0,0.0176 -7.5e-4,-0.005 7.5e-4,-0.0125 0,-0.0176 z" /><rect
       style="fill:#a4161a;fill-opacity:1;stroke-width:0.264583"
       id="rect2"
       width="79.374992"
       height="39.6875"
       x="47.856911"
       y="123.54481" /><path
       d="m 82.735003,142.19397 c -0.943239,0 -2.129895,0.42598 -2.951427,1.27794 l -1.217083,2.25161 v -3.10357 h -4.777052 v 16.21764 h 4.777052 v -6.78524 c 0,-4.59449 1.612635,-6.11584 5.385594,-5.87243 v -3.86424 c -0.365125,-0.0609 -0.699823,-0.12171 -1.217084,-0.12171 z"
       id="path1085"
       style="font-weight:900;font-size:115px;line-height:1.25;font-family:Aileron;-inkscape-font-specification:'Aileron Heavy';white-space:pre;fill:#0a0702;stroke-width:0.264583" /><path
       d="m 101.38677,142.61995 h -4.746631 v 8.67172 c 0,2.98186 -1.27793,4.65535 -3.22527,4.65535 -1.85605,0 -2.70801,-0.97367 -2.921,-2.61673 -0.0913,-0.82153 -0.1217,-1.70392 -0.1217,-2.22118 v -8.48916 h -4.74663 v 9.52368 c 0,1.30837 0.03043,2.19075 0.152136,3.01228 0.365125,2.22118 2.373312,4.10766 5.720294,4.10766 1.52135,0 2.67758,-0.30427 3.77296,-1.03452 l 1.36921,-2.16033 v 2.76887 h 4.746631 z"
       id="path1087"
       style="font-weight:900;font-size:115px;line-height:1.25;font-family:Aileron;-inkscape-font-specification:'Aileron Heavy';white-space:pre;fill:#0a0702;stroke-width:0.264583" /><path
       d="m 115.17019,142.19397 c -1.64306,0 -3.2557,0.36513 -4.16851,1.06495 l -1.21709,1.7952 v -8.58044 h -4.77705 v 22.36391 h 4.77705 v -2.1299 l 1.06495,1.70392 c 0.82153,0.51726 2.43417,0.85196 3.77296,0.85196 4.16851,0 7.72848,-3.04271 7.72848,-8.88471 0,-4.77705 -2.70801,-8.18489 -7.18079,-8.18489 z m -1.67349,13.78347 c -1.82563,0 -3.71211,-1.21708 -3.71211,-4.71619 V 150.531 c 0,-3.71211 1.67349,-5.0509 3.86424,-5.0509 2.25161,0 3.80339,2.00819 3.80339,5.20303 0,3.52954 -1.64306,5.29431 -3.95552,5.29431 z"
       id="path1089"
       style="font-weight:900;font-size:115px;line-height:1.25;font-family:Aileron;-inkscape-font-specification:'Aileron Heavy';white-space:pre;fill:#0a0702;stroke-width:0.264583" /><path
       id="path1091"
       style="font-weight:900;font-size:115px;line-height:1.25;font-family:Aileron;-inkscape-font-specification:'Aileron Heavy';white-space:pre;fill:#0a0702;stroke-width:0.264583"
       d="m 127.31046,136.35178 c -1.52136,0 -2.52543,0.94349 -2.52543,2.40399 0,1.49093 1.00407,2.43396 2.52543,2.43396 1.52135,0 2.55592,-0.94303 2.55592,-2.43396 0,-1.4605 -1.03457,-2.40399 -2.55592,-2.40399 z m 26.16739,2.31252 v 4.07727 h -2.46444 v 3.04271 h 2.46444 v 7.45484 c 0,0.91281 8e-5,1.64292 0.061,2.46445 0.18256,2.37331 1.33844,3.5295 4.89841,3.5295 1.03452,0 1.97809,-0.0913 2.95176,-0.2434 v -3.0427 c -2.43417,0.15213 -2.98199,-0.21309 -3.10369,-1.82573 -0.0304,-0.42598 -0.0305,-0.97368 -0.0305,-1.52136 v -6.8156 h 3.43804 v -3.04271 h -3.43804 v -4.07727 z m -10.25415,3.5295 c -1.52135,0 -2.67753,0.30431 -3.7729,1.03456 l -1.33842,1.94769 v -2.55592 h -4.77748 v 16.21762 h 4.77748 v -7.51582 c 0,-4.13808 1.39963,-5.84202 3.28611,-5.84202 1.85605,0 2.76855,1.03481 2.89026,2.67787 0.0609,0.82153 0.061,1.643 0.061,2.25154 v 8.42843 h 4.77697 v -9.15862 c 0,-1.30837 -0.0302,-2.19069 -0.15193,-3.01222 -0.36512,-2.82972 -2.34323,-4.47311 -5.75107,-4.47311 z m -18.28622,0.42633 v 16.21762 h 4.77697 v -16.21762 z" /><path
       id="path1122"
       style="font-size:14px;line-height:1.25;font-family:Aileron;-inkscape-font-specification:Aileron;white-space:pre;fill:#0a0702;stroke-width:0.658832"
       d="m 86.997674,164.55522 v 6.82543 h 0.793233 v -2.14923 c 0,-1.66948 0.645721,-2.22276 1.411284,-2.2412 0.756335,-0.0185 1.070091,0.42445 1.116211,0.99632 0.0184,0.24904 0.01809,0.45169 0.01809,0.70073 v 2.69338 h 0.793234 v -2.74867 c 0,-0.39662 3.13e-4,-0.59019 -0.01809,-0.83923 -0.0738,-0.8578 -0.673624,-1.42988 -1.743563,-1.42988 -0.498077,0 -0.857727,0.0833 -1.272791,0.40617 l -0.304374,0.56276 v -2.77658 z m 16.307536,0.046 v 5.40535 c 0,0.26749 -2.2e-4,0.47941 0.009,0.64544 0.0277,0.61798 0.36926,0.76584 0.83044,0.76584 0.18447,0 0.38699,-0.009 0.56224,-0.0372 v -0.57154 c -0.43351,0.0461 -0.58101,-0.0553 -0.59945,-0.36897 -0.009,-0.1568 -0.009,-0.31389 -0.009,-0.46147 v -5.37745 z m 13.78933,0.28628 c -0.28593,0 -0.50746,0.22102 -0.50746,0.50695 0,0.28594 0.22153,0.50746 0.50746,0.50746 0.28593,0 0.50695,-0.22152 0.50695,-0.50746 0,-0.28593 -0.22102,-0.50695 -0.50695,-0.50695 z m -42.650105,0.50695 v 1.13481 h -0.655257 v 0.60875 h 0.655257 v 2.84996 c 0,0.27671 1.02e-4,0.47962 0.0093,0.60875 0.04612,0.60877 0.359655,0.85782 0.968416,0.85782 0.221368,0 0.442752,-0.009 0.673344,-0.046 v -0.58136 c -0.617985,0.0738 -0.811632,-0.0278 -0.848527,-0.49816 -0.0092,-0.12913 -0.0093,-0.21173 -0.0093,-0.37775 V 167.138 h 0.913123 v -0.60875 h -0.913123 v -1.13481 z m 4.528923,0.96842 c -1.33743,0 -2.324406,1.00562 -2.324406,2.59209 0,1.72483 0.949739,2.55488 2.222603,2.55488 1.005379,0 1.936922,-0.52573 2.130619,-1.70636 h -0.829923 c -0.110684,0.701 -0.627057,1.09761 -1.263489,1.09761 -0.719445,0 -1.328192,-0.43365 -1.401982,-1.72496 h 3.541903 c 0.01845,-0.17525 0.01809,-0.30396 0.01809,-0.37775 0,-1.42967 -0.746758,-2.43551 -2.093412,-2.43551 z m 5.035868,0 c -1.226746,0 -2.296501,0.93175 -2.296501,2.58278 0,1.78939 0.940642,2.56419 2.176612,2.56419 1.088391,0 1.900106,-0.55324 2.139921,-1.68775 h -0.829924 c -0.166026,0.71022 -0.618349,1.079 -1.264005,1.079 -0.728669,0 -1.35599,-0.59029 -1.35599,-2.01073 0,-1.31898 0.645719,-1.91875 1.411283,-1.91875 0.654879,0 1.079454,0.3782 1.254704,1.16221 h 0.829924 c -0.147579,-1.06995 -0.89462,-1.77095 -2.066024,-1.77095 z m 10.828796,0 c -0.49808,0 -0.858237,0.0833 -1.273307,0.40617 l -0.304374,0.56276 v -0.83974 h -0.793233 v 4.88859 h 0.793233 v -2.14923 c 0,-1.66948 0.645723,-2.2412 1.411283,-2.2412 0.75634,0 1.070091,0.42445 1.116211,0.99632 0.0185,0.24904 0.0186,0.45169 0.0186,0.70073 v 2.69338 h 0.793233 v -2.74867 c 0,-0.39662 -2.04e-4,-0.59019 -0.0186,-0.83923 -0.0738,-0.8578 -0.673106,-1.42988 -1.743046,-1.42988 z m 5.119068,0 c -1.66025,0 -2.426209,1.18993 -2.426209,2.57348 0,1.37432 0.765959,2.57349 2.426209,2.57349 1.66026,0 2.42569,-1.19917 2.42569,-2.57349 0,-1.38355 -0.76543,-2.57348 -2.42569,-2.57348 z m 7.68325,0 c -1.66026,0 -2.42621,1.18993 -2.42621,2.57348 0,1.37432 0.76595,2.57349 2.42621,2.57349 1.66025,0 2.42569,-1.19917 2.42569,-2.57349 0,-1.38355 -0.76544,-2.57348 -2.42569,-2.57348 z m 5.36815,0 c -1.26364,0 -2.389,0.83954 -2.389,2.64738 0,1.42966 0.79294,2.49959 2.2226,2.49959 0.49808,0 1.01469,-0.15698 1.2914,-0.38757 l 0.36897,-0.52555 v 0.0832 c 0,0.14758 2.1e-4,0.30427 -0.009,0.53486 -0.0369,0.94081 -0.56269,1.49396 -1.53117,1.49396 -0.83935,0 -1.31881,-0.41487 -1.38338,-1.01441 l -0.009,-0.0832 h -0.80254 l 0.009,0.0925 c 0.10147,1.03305 0.79315,1.61386 2.18592,1.61386 1.41122,0 2.27828,-0.75625 2.3244,-2.18591 0.009,-0.26749 0.009,-0.64544 0.009,-0.94982 v -3.68969 h -0.79323 v 0.67334 l -0.32247,-0.47956 c -0.24904,-0.20292 -0.76566,-0.32297 -1.1715,-0.32297 z m 7.80314,0 c -1.33743,0 -2.32441,1.00562 -2.32441,2.59209 0,1.72483 0.94974,2.55488 2.22261,2.55488 1.00538,0 1.93744,-0.52573 2.13113,-1.70636 h -0.83044 c -0.11068,0.701 -0.62704,1.09761 -1.26348,1.09761 -0.71944,0 -1.3282,-0.43365 -1.40199,-1.72496 h 3.54191 c 0.0185,-0.17525 0.0186,-0.30396 0.0186,-0.37775 0,-1.42967 -0.74728,-2.43551 -2.09393,-2.43551 z m 4.56561,0 c -1.00538,0 -1.68775,0.53519 -1.68775,1.42988 0,0.8578 0.70093,1.21747 1.57717,1.45728 0.82091,0.22137 1.1529,0.47063 1.1529,0.94103 0,0.47041 -0.42458,0.71003 -0.95033,0.71003 -0.56264,0 -1.01447,-0.24888 -1.1436,-0.95911 h -0.82993 c 0.14758,1.10684 0.91285,1.56786 1.91823,1.56786 1.03305,0 1.81746,-0.46102 1.81746,-1.38338 0,-0.83013 -0.53507,-1.27323 -1.66036,-1.56838 -0.6641,-0.17525 -1.07022,-0.36846 -1.07022,-0.85731 0,-0.42429 0.25842,-0.72916 0.81184,-0.72916 0.57187,0 0.92233,0.34177 1.03301,0.91364 h 0.83044 c -0.10146,-0.89469 -0.70125,-1.52238 -1.79886,-1.52238 z m -8.67957,0.12919 v 4.88859 h 0.79323 v -4.88859 z m -37.742916,0.47955 c 0.802458,0 1.235692,0.58117 1.309481,1.59577 h -2.74867 c 0.09224,-1.04227 0.664402,-1.59577 1.439189,-1.59577 z m 21.002336,0 c 0.98694,0 1.55856,0.81178 1.55856,1.96474 0,1.14373 -0.57162,1.96474 -1.55856,1.96474 -0.98693,0 -1.559078,-0.82101 -1.559078,-1.96474 0,-1.15296 0.572148,-1.96474 1.559078,-1.96474 z m 7.68325,0 c 0.98693,0 1.55856,0.81178 1.55856,1.96474 0,1.14373 -0.57163,1.96474 -1.55856,1.96474 -0.98694,0 -1.55908,-0.82101 -1.55908,-1.96474 0,-1.15296 0.57214,-1.96474 1.55908,-1.96474 z m 5.36815,0 c 0.701,0 1.49397,0.47993 1.49397,1.74357 v 0.26768 c 0,1.402 -0.7288,1.91823 -1.54048,1.91823 -0.97771,0 -1.47536,-0.87598 -1.47536,-1.98282 0,-1.28209 0.66407,-1.94666 1.52187,-1.94666 z m 7.78454,0 c 0.80246,0 1.2362,0.58117 1.30999,1.59577 h -2.74866 c 0.0922,-1.04227 0.66388,-1.59577 1.43867,-1.59577 z" /></g></svg>
