<?xml version="1.0" encoding="UTF-8" standalone="no"?>
<!-- Created with Inkscape (http://www.inkscape.org/) -->

<svg
   width="123.84027mm"
   height="37mm"
   viewBox="0 0 123.84024 37"
   version="1.1"
   id="svg1"
   xml:space="preserve"
   inkscape:version="1.4.2 (2aeb623e1d, 2025-05-12)"
   sodipodi:docname="logo.svg"
   xmlns:inkscape="http://www.inkscape.org/namespaces/inkscape"
   xmlns:sodipodi="http://sodipodi.sourceforge.net/DTD/sodipodi-0.dtd"
   xmlns:xlink="http://www.w3.org/1999/xlink"
   xmlns="http://www.w3.org/2000/svg"
   xmlns:svg="http://www.w3.org/2000/svg"><sodipodi:namedview
     id="namedview1"
     pagecolor="#505050"
     bordercolor="#eeeeee"
     borderopacity="1"
     inkscape:showpageshadow="0"
     inkscape:pageopacity="0"
     inkscape:pagecheckerboard="0"
     inkscape:deskcolor="#505050"
     inkscape:document-units="mm"
     inkscape:zoom="1.0416171"
     inkscape:cx="202.56963"
     inkscape:cy="94.084473"
     inkscape:window-width="1440"
     inkscape:window-height="831"
     inkscape:window-x="0"
     inkscape:window-y="0"
     inkscape:window-maximized="1"
     inkscape:current-layer="layer1"
     showgrid="false" /><defs
     id="defs1"><rect
       x="65.434845"
       y="-239.17564"
       width="399.3782"
       height="204.20184"
       id="rect1" /><rect
       x="320.06757"
       y="585.44208"
       width="265.0509"
       height="42.071571"
       id="rect57482" /><rect
       x="276.43774"
       y="273.69165"
       width="364.31195"
       height="151.30833"
       id="rect3509" /><rect
       x="65.434845"
       y="-239.17564"
       width="399.3782"
       height="204.20184"
       id="rect3" /><linearGradient
       inkscape:collect="always"
       xlink:href="#linearGradient9"
       id="linearGradient10"
       x1="123.75768"
       y1="137.34555"
       x2="123.75768"
       y2="116.36798"
       gradientUnits="userSpaceOnUse"
       gradientTransform="translate(98.242112,-14.965079)" /><linearGradient
       id="linearGradient9"
       inkscape:collect="always"><stop
         style="stop-color:#8c1eff;stop-opacity:1;"
         offset="0"
         id="stop9" /><stop
         style="stop-color:#ff901f;stop-opacity:1;"
         offset="0.69999999"
         id="stop10" /></linearGradient><linearGradient
       id="linearGradient13"
       inkscape:collect="always"><stop
         style="stop-color:#8c1eff;stop-opacity:1;"
         offset="0"
         id="stop13" /><stop
         style="stop-color:#ff901f;stop-opacity:1;"
         offset="1"
         id="stop14" /></linearGradient><linearGradient
       inkscape:collect="always"
       xlink:href="#linearGradient13"
       id="linearGradient1"
       gradientUnits="userSpaceOnUse"
       gradientTransform="translate(98.242287,-14.965235)"
       x1="69.804604"
       y1="149.36154"
       x2="69.804604"
       y2="116.36154" /></defs><g
     inkscape:label="Layer 1"
     inkscape:groupmode="layer"
     id="layer1"
     transform="translate(-149.54672,-99.396461)"><path
       d="m 220.02908,99.562911 c -1.01587,3.7e-4 -1.83931,0.823799 -1.83968,1.839679 v 5.73867 c -0.0286,-0.97375 -0.81116,-1.75652 -1.7849,-1.78542 h -3.93775 c -1.01587,3.7e-4 -1.83931,0.8238 -1.83968,1.83968 v 7.73441 c 0,1.467 -0.3169,2.35463 -0.59583,2.75022 -0.27892,0.39562 -0.4267,0.46302 -0.90433,0.46302 -0.57798,0 -0.73536,-0.11755 -0.82993,-0.20515 -0.0944,-0.0874 -0.22128,-0.27135 -0.28318,-0.75396 v -5.2e-4 -5.2e-4 -5.1e-4 -5.2e-4 c -0.0718,-0.66336 -0.0997,-1.44284 -0.0997,-1.85157 v -8.1349 c -3.7e-4,-1.01588 -0.82381,-1.83931 -1.83969,-1.83968 h -3.93981 c -0.26266,0.15654 -0.48218,0.37606 -0.63872,0.63872 -0.13101,-0.33845 -0.35916,-0.63061 -0.65577,-0.83974 -0.50238,-0.12552 -1.02283,-0.17002 -1.55908,-0.17002 -1.07754,0 -2.14059,0.40341 -3.11092,1.05678 -0.16316,-0.28578 -0.39997,-0.52258 -0.68575,-0.68574 h -3.93722 c -1.01608,8e-5 -1.83983,0.8236 -1.8402,1.83968 v 15.18357 c 8e-5,1.01628 0.82392,1.84012 1.8402,1.8402 h 3.93722 c 1.01608,-3.7e-4 1.8396,-0.82412 1.83968,-1.8402 v -6.96288 c 0,-1.79601 0.37553,-2.64867 0.70746,-2.99207 0.33192,-0.3434 0.886,-0.57449 2.23603,-0.48059 0.009,-0.003 0.0183,-0.006 0.0274,-0.009 v 4.22455 c 0,1.25566 0.0285,2.13448 0.16227,3.03702 0.001,0.01 0.002,0.0189 0.004,0.0289 0.49056,2.98428 3.35084,5.39502 7.18199,5.39502 1.48991,0 2.87153,-0.3843 4.13463,-1.08986 0.16364,0.28758 0.40178,0.52573 0.68936,0.68937 h 3.93775 c 0.9948,-0.0151 1.79752,-0.81801 1.81229,-1.81281 0.0148,0.9948 0.81749,1.79771 1.81229,1.81281 h 3.93982 c 0.21345,-0.13948 0.39558,-0.32179 0.53485,-0.53537 1.28965,0.70017 2.67292,0.93586 4.03128,0.93586 2.3939,0 4.73491,-0.8831 6.43165,-2.64842 0.67492,-0.70221 1.1413,-1.62504 1.57458,-2.56883 v 2.97656 c 8e-5,1.01608 0.8236,1.83983 1.83968,1.8402 h 3.93929 c 1.00542,-0.008 1.81825,-0.82083 1.82625,-1.82625 0.008,1.00541 0.82083,1.81825 1.82624,1.82625 h 3.9393 c 1.01608,-3.7e-4 1.8396,-0.82412 1.83968,-1.8402 v -6.9355 c 0,-1.89224 0.37048,-3.01764 0.69556,-3.51348 0.32509,-0.49585 0.46509,-0.52555 0.89039,-0.52555 0.60799,0 0.749,0.12639 0.8325,0.20929 0.0835,0.0829 0.20675,0.27324 0.24185,0.76533 v 0.006 c 0.0507,0.68648 0.0527,1.34576 0.0527,1.97456 v 8.01915 c 8e-5,1.01628 0.82392,1.84012 1.8402,1.8402 h 3.93929 c 1.01608,-3.7e-4 1.8396,-0.82412 1.83968,-1.8402 v -8.56227 c 0,-0.98496 -0.0455,-1.64148 -0.0997,-2.32802 0.0772,0.0943 0.16356,0.18066 0.25786,0.25786 h 0.38706 v 5.63842 c 0,0.85344 -0.002,1.56361 0.0625,2.34404 0.10782,1.3477 0.59842,2.76485 1.74563,3.66179 1.1472,0.89694 2.58159,1.14257 4.254,1.14257 0.96315,0 1.90325,-0.0635 2.89078,-0.22273 0.89134,-0.14408 1.54651,-0.91351 1.54668,-1.81642 v -2.56987 c -5e-4,-1.072 -0.9135,-1.9167 -1.98231,-1.834 -0.76678,0.0597 -0.84298,0.0106 -0.87488,0.031 -0.0213,-0.30674 -0.0253,-0.68882 -0.0253,-1.19321 v -5.1816 h 1.30069 c 1.01608,-3.7e-4 1.8396,-0.82412 1.83968,-1.8402 v -2.5957 c -3.7e-4,-1.01587 -0.82381,-1.83931 -1.83968,-1.83968 h -1.30069 v -1.90015 c -9e-5,-1.01628 -0.82392,-1.84011 -1.8402,-1.84019 h -3.93723 c -1.01607,3.7e-4 -1.83959,0.82412 -1.83968,1.84019 v 1.90015 h -0.38706 c -1.01587,3.7e-4 -1.83931,0.82381 -1.83968,1.83968 v 0.0801 c -0.24525,-0.2972 -0.41878,-0.65078 -0.72243,-0.89607 -1.30471,-1.05396 -3.02658,-1.53944 -4.94337,-1.53944 -1.46835,0 -2.85673,0.38547 -4.11551,1.10949 -0.16616,-0.2974 -0.4116,-0.54284 -0.709,-0.709 h -3.9393 c -1.00541,0.008 -1.81824,0.82083 -1.82624,1.82624 -0.18088,-0.37551 -0.48387,-0.6785 -0.85938,-0.85938 0.67817,-0.7182 1.07229,-1.69655 1.07228,-2.69544 0,-2.11053 -1.90722,-3.921719 -4.00802,-3.921719 -2.1008,0 -4.00957,1.809219 -4.00957,3.921719 0,0.99887 0.39478,1.97776 1.07228,2.69544 -0.38274,0.18179 -0.69103,0.49008 -0.87281,0.87282 v 2.61328 c -0.32896,-0.7064 -0.6155,-1.44368 -1.11363,-2.03089 -1.4993,-1.76738 -3.78731,-2.82256 -6.37894,-2.82256 -1.12866,0 -2.21109,0.20616 -3.24011,0.56275 v -4.11551 c -3.7e-4,-1.01587 -0.82381,-1.839309 -1.83968,-1.839679 z"
       style="fill:#f9f9f9;fill-opacity:1;stroke-width:0.264583"
       id="path6" /><path
       d="m 204.03066,126.09612 c -0.30565,4.8e-4 -0.55399,0.24884 -0.55449,0.55449 v 2.127 c -0.43205,-0.65917 -1.18363,-1.11156 -2.12493,-1.11156 -0.72045,0 -1.41189,0.25628 -1.9141,0.75809 -0.19611,0.19597 -0.33572,0.44451 -0.45889,0.70332 -0.0927,-0.21655 -0.19266,-0.43311 -0.34985,-0.61753 -0.44089,-0.5173 -1.12419,-0.84388 -1.92546,-0.84388 -0.78037,0 -1.47638,0.29196 -1.96319,0.79323 v -0.0935 c -1.8e-4,-0.30586 -0.24867,-0.55451 -0.55448,-0.555 h -0.3359 v -0.50592 c -4.9e-4,-0.30582 -0.24914,-0.5543 -0.555,-0.55448 h -1.11724 c -0.30565,4.8e-4 -0.554,0.24883 -0.5545,0.55448 v 0.50592 h -0.076 c -0.30603,1.8e-4 -0.55482,0.24897 -0.555,0.555 v 0.73794 c 1.8e-4,0.30603 0.24897,0.55482 0.555,0.555 h 0.076 v 1.56632 c 0,0.24198 -9.9e-4,0.44521 0.0176,0.66972 0.0314,0.38855 0.17286,0.79893 0.50798,1.0604 0.33399,0.26062 0.75072,0.33022 1.22835,0.33022 0.27477,0 0.54237,-0.0171 0.82424,-0.0625 0.26871,-0.0436 0.46673,-0.27654 0.46664,-0.54881 v -0.1757 c 0.0173,0.0321 0.0361,0.0653 0.0646,0.0935 0.49505,0.49056 1.17605,0.71727 1.88257,0.71727 1.00265,0 1.90502,-0.51865 2.34403,-1.40663 0.11426,0.25123 0.24187,0.49151 0.42943,0.68161 0.48453,0.49107 1.16082,0.72502 1.86552,0.72502 0.63178,0 1.22457,-0.1611 1.6955,-0.51573 0.20759,-0.15633 0.38328,-0.35165 0.5271,-0.57413 v 0.42168 c 5e-4,0.30565 0.24884,0.554 0.55449,0.55449 h 1.11725 c 0.30586,-1.8e-4 0.55451,-0.24867 0.555,-0.55449 v -1.9668 c 0,-0.53255 0.10575,-0.8466 0.1912,-0.97669 0.0445,-0.0678 0.0756,-0.0994 0.10542,-0.11524 0.0299,-0.0158 0.0641,-0.0187 0.12506,-0.0196 0.0787,8.2e-4 0.12796,0.01 0.15813,0.0196 0.0302,0.01 0.0412,0.0201 0.0506,0.0295 0.0165,0.0164 0.047,0.0605 0.0569,0.19327 v 0.002 c -2e-5,6.9e-4 -2e-5,0.001 0,0.002 0.0144,0.19275 0.0155,0.37749 0.0155,0.55656 v 2.27531 c 4.9e-4,0.30582 0.24914,0.55431 0.55501,0.55449 h 1.11724 c 5.2e-4,1e-5 0.001,1e-5 0.002,0 0.22478,-0.0119 0.41216,-0.15804 0.48834,-0.35915 0.0762,0.2012 0.2634,0.34742 0.48835,0.35915 6.9e-4,2e-5 0.001,2e-5 0.002,0 h 1.11725 c 0.30565,-4.9e-4 0.55399,-0.24884 0.55449,-0.55449 v -1.9668 c 0,-0.53256 0.10612,-0.84951 0.19171,-0.98031 0.0452,-0.0688 0.0752,-0.10013 0.10336,-0.11523 0.0282,-0.0151 0.061,-0.0176 0.12092,-0.0176 0.0839,0 0.13461,0.009 0.16433,0.0191 0.0297,0.0101 0.0393,0.0203 0.0506,0.0315 0.0165,0.0164 0.047,0.0605 0.0568,0.19327 v 0.002 c -2e-5,6.9e-4 -2e-5,10e-4 0,0.002 0.0139,0.19289 0.0155,0.37755 0.0155,0.55656 v 2.27531 c 4.9e-4,0.30565 0.24884,0.554 0.55449,0.55449 h 1.11724 c 0.30587,-1.8e-4 0.554,-0.24867 0.55449,-0.55449 v -0.64079 c 0.0855,0.17237 0.17482,0.34384 0.31058,0.48835 0.4905,0.52214 1.21732,0.82062 2.05879,0.82062 0.84146,0 1.56829,-0.29848 2.05879,-0.82062 0.14618,-0.15562 0.24238,-0.34222 0.33383,-0.52917 1.4e-4,0.002 -1.6e-4,0.004 0,0.006 v 0.002 c 0.0187,0.3911 0.18061,0.77463 0.48059,1.00201 0.29948,0.22697 0.65279,0.28318 0.9958,0.28318 0.26097,0 0.50052,-0.005 0.74828,-0.0331 0.28131,-0.0312 0.49445,-0.26988 0.49402,-0.55294 v -0.17208 c 0.49042,0.51843 1.21436,0.81494 2.05259,0.81494 0.84147,0 1.56829,-0.29848 2.05879,-0.82062 0.17093,-0.18196 0.28057,-0.40266 0.38447,-0.62322 0.072,0.15303 0.15213,0.30101 0.25425,0.43563 -0.2812,0.0456 -0.48821,0.29926 -0.46509,0.59015 l 0.008,0.078 c -6e-5,0.001 -6e-5,0.002 0,0.004 0.0615,0.59978 0.3482,1.14227 0.82269,1.48467 0.47345,0.34164 1.08635,0.48627 1.79473,0.48627 0.768,0 1.46456,-0.18161 1.9885,-0.61908 0.4379,-0.36561 0.71353,-0.90037 0.81029,-1.52549 0.069,0.22812 0.27898,0.39596 0.52917,0.39636 h 1.11724 c 0.30587,-1.8e-4 0.55451,-0.24867 0.55501,-0.55449 v -0.66197 c 0.10929,0.22552 0.23167,0.44201 0.40411,0.61288 0.49505,0.49056 1.17604,0.71727 1.88257,0.71727 0.9144,0 1.76036,-0.42044 2.23862,-1.16634 0.14289,0.28237 0.32529,0.53728 0.57774,0.71675 0.4533,0.32227 1.01729,0.44959 1.61954,0.44959 0.57241,0 1.11992,-0.11446 1.56632,-0.41238 0.44852,-0.29932 0.76171,-0.82713 0.76171,-1.42989 0,-0.51915 -0.20215,-0.9969 -0.55087,-1.31206 -0.0146,-0.0132 -0.031,-0.0181 -0.047,-0.0258 0.30953,-0.0267 0.54284,-0.30254 0.50385,-0.61702 -0.0632,-0.51074 -0.29744,-0.99252 -0.69712,-1.33015 -0.39962,-0.33757 -0.94292,-0.51573 -1.56063,-0.51573 -0.60438,0 -1.15416,0.14484 -1.57768,0.46922 -0.27645,0.21175 -0.44395,0.51926 -0.54932,0.85318 -0.0762,-0.16439 -0.14783,-0.33367 -0.2713,-0.47852 -0.44089,-0.5173 -1.12471,-0.84388 -1.92598,-0.84388 -0.79532,0 -1.50425,0.30153 -1.99213,0.82062 -0.16455,0.1751 -0.27862,0.3856 -0.3824,0.60152 v -0.75396 c -2.4e-4,-0.005 -0.002,-0.0107 -0.004,-0.0155 -0.0491,-0.1075 -0.13372,-0.1906 -0.23616,-0.24804 0.18046,-0.20516 0.29662,-0.47014 0.29662,-0.74828 0,-0.61945 -0.55324,-1.14618 -1.16995,-1.14618 -0.61672,0 -1.16995,0.52673 -1.16995,1.14618 0,0.27814 0.11668,0.54312 0.29713,0.74828 -0.0723,0.0405 -0.13017,0.0965 -0.17776,0.16381 -0.0474,-0.25832 -0.27336,-0.45459 -0.54519,-0.45475 h -1.11724 c -0.007,1.2e-4 -0.0134,0.002 -0.0191,0.006 -0.055,0.036 -0.10149,0.0842 -0.14056,0.13695 -0.3651,-0.19158 -0.7553,-0.25632 -1.13482,-0.25632 -0.68027,0 -1.35232,0.23733 -1.84381,0.73639 -0.19183,0.19479 -0.32772,0.44409 -0.44752,0.70538 -0.10427,-0.2222 -0.21428,-0.44414 -0.38654,-0.62683 -0.49127,-0.52103 -1.21866,-0.81494 -2.05879,-0.81494 -0.84013,0 -1.567,0.29391 -2.05827,0.81494 -0.23026,0.24419 -0.38827,0.53745 -0.50385,0.85318 v -2.64429 c -1.9e-4,-0.30603 -0.24897,-0.55482 -0.555,-0.555 h -1.11725 c -0.30582,4.9e-4 -0.5543,0.24914 -0.55448,0.555 v 2.29082 c -0.0869,-0.17616 -0.17764,-0.35268 -0.31626,-0.49971 -0.49128,-0.52103 -1.21867,-0.81494 -2.05879,-0.81494 -0.84013,0 -1.56752,0.29391 -2.05879,0.81494 -0.17958,0.19044 -0.30118,0.41932 -0.40825,0.65422 -0.0903,-0.40016 -0.27726,-0.77129 -0.59531,-1.02733 -0.37791,-0.30421 -0.87521,-0.44183 -1.4242,-0.44183 -0.40787,0 -0.78202,0.13501 -1.13068,0.32815 -0.0532,-0.0888 -0.12623,-0.16332 -0.21859,-0.21084 -0.005,-0.003 -0.0115,-0.004 -0.0176,-0.004 H 209.059 c -0.30603,1.8e-4 -0.55482,0.24845 -0.555,0.55449 v 0.63872 c -0.10385,-0.33799 -0.28893,-0.64337 -0.56431,-0.86507 -0.37791,-0.30422 -0.87469,-0.44183 -1.42368,-0.44183 -0.29772,0 -0.5548,0.13011 -0.81236,0.23255 v -1.24799 c -4.9e-4,-0.30582 -0.24914,-0.55432 -0.555,-0.55449 z"
       style="fill:#f9f9f9;fill-opacity:1;stroke-width:0.264583"
       id="path7" /><circle
       style="fill:#ffffff;fill-opacity:1;stroke-width:0.293547"
       id="circle7"
       cx="168.04672"
       cy="117.89646"
       r="18.5" /><path
       id="path8"
       style="font-weight:bold;font-family:Aileron;-inkscape-font-specification:'Aileron Bold';white-space:pre;fill:url(#linearGradient10);stroke-width:2.37841"
       d="m 220.03031,101.40296 v 20.97753 h 3.93878 v -2.02623 l 0.99891,1.56941 c 0.77061,0.54228 2.31194,0.85628 3.56774,0.85628 3.9101,0 7.27811,-2.79716 7.27811,-8.27702 0,-4.48092 -2.51185,-7.70599 -6.76445,-7.70599 -1.54121,0 -3.08255,0.37129 -3.93877,1.05627 l -1.14154,1.6552 v -8.10545 z m 20.32125,0.14262 c -1.28434,0 -2.16886,0.85634 -2.16886,2.0836 0,1.2558 0.88452,2.08359 2.16886,2.08359 1.28435,0 2.16937,-0.82779 2.16937,-2.08359 0,-1.22726 -0.88502,-2.0836 -2.16937,-2.0836 z m 24.11687,2.02624 v 3.7393 h -2.22622 v 2.59674 h 2.22622 v 7.4781 c 0,0.85623 2.6e-4,1.5123 0.0574,2.19728 0.17124,2.14057 1.22696,3.11092 4.16667,3.11092 0.88477,0 1.71249,-0.0568 2.59726,-0.19947 v -2.56883 c -2.19765,0.17125 -2.73992,-0.17107 -2.85409,-1.6552 -0.0285,-0.39957 -0.0284,-0.82779 -0.0284,-1.34152 v -7.02128 h 3.13934 v -2.59674 h -3.13934 v -3.7393 z m -9.73222,3.22512 c -1.45559,0 -2.56897,0.28566 -3.65353,1.05627 l -1.16995,1.79782 v -2.45411 h -3.93878 v 15.18357 h 3.93878 v -6.9355 c 0,-4.22405 1.51287,-5.87922 3.42511,-5.87922 1.91224,0 2.79678,1.08423 2.91094,2.68252 0.0571,0.7706 0.0574,1.48412 0.0574,2.11202 v 8.02018 h 3.93826 v -8.56227 c 0,-1.22726 -0.0285,-1.99771 -0.11421,-2.76831 -0.31395,-2.6543 -2.16886,-4.25297 -5.39398,-4.25297 z m -55.45502,0.0289 c -0.85623,0 -1.85519,0.34235 -2.59725,1.02733 l -1.19838,2.11202 v -2.76827 h -3.93878 v 15.18357 h 3.93878 v -6.96392 c 0,-4.08135 1.62655,-5.53705 4.90874,-5.30872 v -3.16776 c -0.34249,-0.0856 -0.65646,-0.11421 -1.11311,-0.11421 z m 2.85409,0.37104 v 8.96173 c 0,1.22726 0.0284,1.9977 0.14263,2.7683 0.34249,2.08349 2.22658,3.853 5.36608,3.853 1.45559,0 2.53991,-0.28526 3.65301,-1.02733 l 1.16995,-1.94097 v 2.56884 h 3.93878 v -15.18353 h -3.93878 v 7.73441 c 0,3.42491 -1.36949,5.05189 -3.33881,5.05189 -1.82662,0 -2.74009,-0.99909 -2.93987,-2.56884 -0.0856,-0.7706 -0.11421,-1.5984 -0.11421,-2.08359 v -8.13387 z m 36.24689,0 v 15.18357 h 3.93877 v -15.18353 z m -10.4743,2.36885 c 2.34035,0 3.82457,2.08355 3.82457,5.19451 0,3.51053 -1.68393,5.25136 -3.9672,5.25136 -1.82662,0 -3.79615,-1.2274 -3.79615,-4.68085 v -0.71365 c 0,-3.71031 1.76967,-5.05137 3.93878,-5.05137 z m -23.8771,17.08422 v 5.99137 h 1.11673 V 130.674 c 0,-1.19825 0.4291,-1.66002 0.97152,-1.66812 0.54243,0 0.79341,0.30781 0.82579,0.7612 0.0162,0.2186 0.0165,0.42081 0.0165,0.59893 v 2.27531 h 1.11724 v -2.42879 c 0,-0.34814 -0.008,-0.56689 -0.0326,-0.78548 -0.0891,-0.75295 -0.61531,-1.20613 -1.53014,-1.20613 -0.41289,0 -0.72847,0.0807 -1.03611,0.29921 l -0.33228,0.51004 v -2.38022 z m 14.92829,0.0403 v 4.56665 c 0,0.28336 3.4e-4,0.48575 0.0165,0.68006 0.0243,0.55864 0.37242,0.76068 0.92294,0.76068 0.25097,0 0.46922,-0.008 0.68781,-0.032 v -0.76946 c -0.38051,0.0243 -0.47749,-0.0486 -0.50177,-0.26717 -0.008,-0.11334 -0.008,-0.22634 -0.008,-0.39636 l -5.1e-4,-4.54236 z m 12.97802,0.0408 c -0.36432,0 -0.61546,0.24252 -0.61546,0.59066 0,0.35624 0.25114,0.59118 0.61546,0.59118 0.36431,0 0.61495,-0.23494 0.61495,-0.59118 0,-0.34814 -0.25064,-0.59066 -0.61495,-0.59066 z m -39.75881,0.57464 v 1.06092 h -0.63149 v 0.73639 h 0.63149 v 2.12131 c 0,0.24289 -1.7e-4,0.42891 0.016,0.62322 0.0486,0.60722 0.34796,0.88263 1.18184,0.88263 0.25097,0 0.48593,-0.0163 0.73691,-0.0568 v -0.72864 c -0.62339,0.0486 -0.77687,-0.0482 -0.80926,-0.46922 -0.008,-0.11334 -0.008,-0.23513 -0.008,-0.38086 v -1.9916 h 0.89039 v -0.73639 h -0.89039 v -1.06092 z m 4.5253,0.91519 c -1.31962,0 -2.18591,0.96337 -2.18591,2.28306 0,1.51399 0.91504,2.25051 2.09703,2.25051 1.01199,0 1.82161,-0.51018 2.04019,-1.51412 h -1.11725 c -0.0729,0.46149 -0.42099,0.72864 -0.89865,0.72864 -0.51814,0 -0.92294,-0.28333 -0.9958,-1.19011 h 3.06027 c 0.0162,-0.14573 0.016,-0.27508 0.016,-0.38034 0,-1.17395 -0.69627,-2.17764 -2.01589,-2.17764 z m 4.64726,0 c -1.18199,0 -2.15335,0.82556 -2.15335,2.29908 0,1.48971 0.8823,2.23449 2.0562,2.23449 1.07675,0 1.87001,-0.54239 2.05621,-1.603 h -1.11725 c -0.11334,0.54245 -0.43718,0.81752 -0.87436,0.81752 -0.55862,0 -0.96325,-0.45316 -0.96325,-1.52187 0,-0.97964 0.4048,-1.44126 0.97152,-1.44126 0.46146,0 0.78514,0.25923 0.89038,0.88264 h 1.10123 c -0.081,-0.95536 -0.80152,-1.6676 -1.96733,-1.6676 z m 10.19266,0 c -0.41289,0 -0.72847,0.0807 -1.03611,0.29921 l -0.33228,0.51004 v -0.69608 h -1.11724 v 4.30723 h 1.11724 v -1.96732 c 0,-1.19825 0.42909,-1.66812 0.97152,-1.66812 0.54242,0 0.79341,0.30781 0.82579,0.7612 0.0162,0.2186 0.0165,0.42081 0.0165,0.59893 v 2.27531 h 1.11724 v -2.42879 c 0,-0.34814 -0.008,-0.56689 -0.0326,-0.78548 -0.0891,-0.75295 -0.6153,-1.20613 -1.53014,-1.20613 z m 4.485,0 c -1.43297,0 -2.23449,0.95494 -2.23449,2.26653 0,1.3035 0.80152,2.26704 2.23449,2.26704 1.43297,0 2.23449,-0.96354 2.23449,-2.26704 0,-1.31159 -0.80152,-2.26653 -2.23449,-2.26653 z m 7.16494,0 c -1.43297,0 -2.23449,0.95494 -2.23449,2.26653 0,1.3035 0.80152,2.26704 2.23449,2.26704 1.43297,0 2.23449,-0.96354 2.23449,-2.26704 0,-1.31159 -0.80152,-2.26653 -2.23449,-2.26653 z m 4.73614,0 c -1.10913,0 -2.06447,0.75253 -2.06447,2.3151 0,1.26301 0.75294,2.12959 1.96732,2.12959 0.43718,0 0.82579,-0.11351 1.06867,-0.29972 l 0.3235,-0.4775 v 0.10491 c 0,0.18622 2.4e-4,0.36465 -0.008,0.52658 -0.0405,0.68818 -0.46165,1.03611 -1.1498,1.03611 -0.5748,0 -0.94722,-0.25079 -0.9958,-0.6475 l -0.008,-0.0729 h -1.08469 l 0.008,0.0806 c 0.0971,0.94726 0.80151,1.47381 2.06447,1.47381 1.36011,0 2.23449,-0.64764 2.28307,-1.99161 0.008,-0.2348 0.008,-0.56688 0.008,-0.83406 V 128.334 h -1.11724 v 0.57464 l -0.28319,-0.44493 c -0.21859,-0.15383 -0.65561,-0.24288 -1.01183,-0.24288 z m 7.4967,0 c -1.31963,0 -2.18591,0.96337 -2.18591,2.28306 0,1.51399 0.91504,2.25051 2.09703,2.25051 1.01199,0 1.82161,-0.51018 2.04019,-1.51412 h -1.11725 c -0.0729,0.46149 -0.42099,0.72864 -0.89865,0.72864 -0.51813,0 -0.92295,-0.28333 -0.99581,-1.19011 h 3.06028 c 0.0162,-0.14573 0.016,-0.27508 0.016,-0.38034 0,-1.17395 -0.69627,-2.17764 -2.0159,-2.17764 z m 4.32325,0 c -1.02818,0 -1.70842,0.50175 -1.70842,1.32757 0,0.74485 0.55037,1.09311 1.35186,1.29552 0.74482,0.18621 1.02836,0.3724 1.02836,0.70435 0,0.31575 -0.27527,0.46923 -0.63149,0.46923 -0.3886,0 -0.71245,-0.21824 -0.8015,-0.68782 h -1.11724 c 0.12143,0.97155 0.85835,1.42472 1.90272,1.42472 0.98769,0 1.77302,-0.42096 1.77302,-1.28726 0,-0.79343 -0.5185,-1.14945 -1.40095,-1.37614 -0.71244,-0.17812 -0.97927,-0.34846 -0.97927,-0.67231 0,-0.26718 0.17811,-0.46147 0.51005,-0.46147 0.37241,0 0.59066,0.22702 0.66353,0.62373 h 1.11724 c -0.0971,-0.78533 -0.67974,-1.36012 -1.70791,-1.36012 z m -8.37106,0.11317 v 4.30723 h 1.11724 v -4.30723 z m -34.72346,0.67187 c 0.53433,0 0.84233,0.36429 0.91519,1.04438 h -1.89446 c 0.0971,-0.71247 0.46113,-1.04438 0.97927,-1.04438 z m 19.37349,0 c 0.67196,0 1.07694,0.55051 1.07694,1.48157 0,0.92297 -0.40498,1.48156 -1.07694,1.48156 -0.67196,0 -1.07642,-0.55859 -1.07642,-1.48156 0,-0.93106 0.40446,-1.48157 1.07642,-1.48157 z m 7.16494,0 c 0.67196,0 1.07694,0.55051 1.07694,1.48157 0,0.92297 -0.40498,1.48156 -1.07694,1.48156 -0.67195,0 -1.07694,-0.55859 -1.07694,-1.48156 0,-0.93106 0.40499,-1.48157 1.07694,-1.48157 z m 4.95474,0 c 0.51814,0 1.07642,0.34827 1.07642,1.31982 v 0.12144 c 0,1.05251 -0.50196,1.43299 -1.11725,1.43299 -0.66386,0 -1.08469,-0.55877 -1.08469,-1.44126 0,-0.98775 0.47785,-1.43299 1.12552,-1.43299 z m 7.22953,0 c 0.53433,0 0.8418,0.36429 0.91467,1.04438 h -1.89446 c 0.0971,-0.71247 0.46166,-1.04438 0.97979,-1.04438 z" /><path
       id="circle1"
       style="fill:url(#linearGradient1);fill-opacity:1;stroke-width:0.261812"
       d="m 168.04698,101.39644 a 16.5,16.5 0 0 0 -16.50028,16.49976 16.5,16.5 0 0 0 0.6258,4.49999 h 31.74897 a 16.5,16.5 0 0 0 0.62528,-4.49999 16.5,16.5 0 0 0 -16.49977,-16.49976 z m -15.72462,21.49946 a 16.5,16.5 0 0 0 0.55862,1.50017 h 30.332 a 16.5,16.5 0 0 0 0.55811,-1.50017 z m 0.82992,2.10013 a 16.5,16.5 0 0 0 0.75241,1.39991 h 28.28458 a 16.5,16.5 0 0 0 0.75189,-1.39991 z m 1.19735,2.10013 a 16.5,16.5 0 0 0 0.96893,1.29966 h 25.45684 a 16.5,16.5 0 0 0 0.96894,-1.29966 z m 1.6738,2.10013 a 16.5,16.5 0 0 0 1.25315,1.19993 h 21.5408 a 16.5,16.5 0 0 0 1.25264,-1.19993 z m 2.3952,2.09961 a 16.5,16.5 0 0 0 1.7539,1.1002 h 15.74891 a 16.5,16.5 0 0 0 1.7539,-1.1002 z m 3.9703,2.10013 a 16.5,16.5 0 0 0 5.65805,1.00046 16.5,16.5 0 0 0 5.65754,-1.00046 z" /></g></svg>
