<?xml version="1.0" encoding="UTF-8" standalone="no"?>
<!-- Created with Inkscape (http://www.inkscape.org/) -->

<svg
   width="130.0006mm"
   height="41.208595mm"
   viewBox="0 0 130.00059 41.208595"
   version="1.1"
   id="svg1"
   inkscape:version="1.4.2 (2aeb623e1d, 2025-05-12)"
   sodipodi:docname="rt.svg"
   xml:space="preserve"
   xmlns:inkscape="http://www.inkscape.org/namespaces/inkscape"
   xmlns:sodipodi="http://sodipodi.sourceforge.net/DTD/sodipodi-0.dtd"
   xmlns="http://www.w3.org/2000/svg"
   xmlns:svg="http://www.w3.org/2000/svg"><sodipodi:namedview
     id="namedview1"
     pagecolor="#505050"
     bordercolor="#eeeeee"
     borderopacity="1"
     inkscape:showpageshadow="0"
     inkscape:pageopacity="0"
     inkscape:pagecheckerboard="0"
     inkscape:deskcolor="#505050"
     inkscape:document-units="mm"
     inkscape:zoom="0.57727274"
     inkscape:cx="1228.1889"
     inkscape:cy="2070.0787"
     inkscape:window-width="1440"
     inkscape:window-height="831"
     inkscape:window-x="0"
     inkscape:window-y="0"
     inkscape:window-maximized="1"
     inkscape:current-layer="layer1"
     showgrid="false"><inkscape:page
       x="2.0879696e-13"
       y="0"
       width="130.0006"
       height="41.208595"
       id="page2"
       margin="0"
       bleed="0" /></sodipodi:namedview><defs
     id="defs1"><inkscape:path-effect
       effect="fillet_chamfer"
       id="path-effect205"
       is_visible="true"
       lpeversion="1"
       nodesatellites_param="F,0,0,1,0,0,0,1 @ F,0,0,1,0,0,0,1 @ F,0,0,1,0,0,0,1 @ F,0,0,1,0,0,0,1 @ F,0,0,1,0,0,0,1 @ F,0,0,1,0,0,0,1 @ F,0,0,1,0,0,0,1 @ F,0,0,1,0,0,0,1 @ F,0,0,1,0,0,0,1 @ F,0,0,1,0,0,0,1 @ F,0,0,1,0,0,0,1 @ F,0,0,1,0,0,0,1 @ F,0,0,1,0,0,0,1 @ F,0,0,1,0,0,0,1 @ F,0,0,1,0,0,0,1 @ F,0,0,1,0,0,0,1 @ F,0,0,1,0,0,0,1 @ F,0,0,1,0,0,0,1 @ F,0,0,1,0,0,0,1 @ F,0,0,1,0,0,0,1 @ F,0,0,1,0,0,0,1 @ F,0,0,1,0,0,0,1 @ F,0,0,1,0,0,0,1 @ F,0,0,1,0,0,0,1 @ F,0,0,1,0,0,0,1 @ F,0,0,1,0,0,0,1 @ F,0,0,1,0,0,0,1 @ F,0,0,1,0,0,0,1 @ F,0,0,1,0,0,0,1 @ F,0,0,1,0,0,0,1 @ F,0,0,1,0,0,0,1 @ F,0,0,1,0,0,0,1 @ F,0,0,1,0,0,0,1 @ F,0,0,1,0,0,0,1 @ F,0,0,1,0,0,0,1 | F,0,0,1,0,0,0,1 @ F,0,0,1,0,0,0,1 @ F,0,0,1,0,0,0,1 @ F,0,0,1,0,0,0,1 @ F,0,0,1,0,0,0,1 @ F,0,0,1,0,0,0,1 @ F,0,0,1,0,0,0,1 @ F,0,0,1,0,0,0,1 @ F,0,0,1,0,0,0,1 @ F,0,0,1,0,0,0,1 @ F,0,0,1,0,0,0,1 @ F,0,0,1,0,0,0,1 @ F,0,0,1,0,0,0,1 @ F,0,0,1,0,0,0,1 @ F,0,0,1,0,0,0,1 @ F,0,0,1,0,0,0,1 @ F,0,0,1,0,0,0,1 @ F,0,0,1,0,0,0,1 @ F,0,0,1,0,0,0,1 @ F,0,0,1,0,0,0,1 @ F,0,0,1,0,0,0,1 @ F,0,0,1,0,0,0,1 @ F,0,0,1,0,0,0,1 @ F,0,0,1,0,0,0,1 @ F,0,0,1,0,0,0,1 @ F,0,0,1,0,0,0,1 @ F,0,0,1,0,0,0,1 @ F,0,0,1,0,0,0,1 @ F,0,0,1,0,0,0,1 @ F,0,0,1,0,0,0,1 @ F,0,0,1,0,0,0,1 @ F,0,0,1,0,0,0,1 @ F,0,0,1,0,0,0,1 @ F,0,0,1,0,0,0,1 @ F,0,0,1,0,0,0,1 @ F,0,0,1,0,0,0,1 @ F,0,0,1,0,0,0,1 @ F,0,0,1,0,0,0,1 @ F,0,0,1,0,0,0,1 @ F,0,0,1,0,0,0,1 @ F,0,0,1,0,0,0,1 @ F,0,0,1,0,0,0,1 @ F,0,0,1,0,0,0,1 @ F,0,0,1,0,0,0,1 @ F,0,0,1,0,0,0,1 @ F,0,0,1,0,0,0,1 @ F,0,0,1,0,0,0,1 @ F,0,0,1,0,0,0,1 @ F,0,0,1,0,0,0,1 @ F,0,0,1,0,0,0,1 @ F,0,0,1,0,0,0,1 @ F,0,0,1,0,0,0,1 @ F,0,0,1,0,0,0,1 @ F,0,0,1,0,0,0,1 @ F,0,0,1,0,0,0,1 @ F,0,0,1,0,0,0,1 @ F,0,0,1,0,0,0,1 @ F,0,0,1,0,0,0,1 @ F,0,0,1,0,0,0,1 @ F,0,0,1,0,0,0,1 @ F,0,0,1,0,0,0,1 @ F,0,0,1,0,0,0,1 @ F,0,0,1,0,0,0,1 @ F,0,0,1,0,0,0,1 @ F,0,0,1,0,0,0,1 @ F,0,0,1,0,0,0,1 @ F,0,0,1,0,0,0,1 @ F,0,0,1,0,0,0,1 @ F,0,0,1,0,0,0,1 @ F,0,0,1,0,0,0,1 @ F,0,0,1,0,0,0,1 @ F,0,0,1,0,0,0,1 @ F,0,0,1,0,0,0,1 @ F,0,0,1,0,0,0,1 @ F,0,0,1,0,0,0,1 @ F,0,0,1,0,0,0,1 @ F,0,0,1,0,0,0,1 @ F,0,0,1,0,0,0,1 @ F,0,0,1,0,0,0,1 @ F,0,0,1,0,0,0,1 @ F,0,0,1,0,0,0,1 @ F,0,0,1,0,0,0,1 @ F,0,0,1,0,0,0,1 @ F,0,0,1,0,0,0,1 @ F,0,0,1,0,0,0,1 @ F,0,0,1,0,0,0,1 @ F,0,0,1,0,0,0,1 @ F,0,0,1,0,0,0,1 @ F,0,0,1,0,0,0,1 @ F,0,0,1,0,0,0,1 @ F,0,0,1,0,0,0,1 @ F,0,0,1,0,0,0,1 @ F,0,0,1,0,0,0,1 @ F,0,0,1,0,0,0,1 @ F,0,0,1,0,0,0,1 @ F,0,0,1,0,0,0,1 @ F,0,0,1,0,0,0,1 @ F,0,0,1,0,0,0,1 @ F,0,0,1,0,0,0,1 @ F,0,0,1,0,0,0,1 @ F,0,0,1,0,0,0,1 @ F,0,0,1,0,0,0,1 @ F,0,0,1,0,0,0,1 @ F,0,0,1,0,0,0,1 @ F,0,0,1,0,0,0,1 @ F,0,0,1,0,0,0,1 @ F,0,0,1,0,0,0,1 @ F,0,0,1,0,0,0,1 @ F,0,0,1,0,0,0,1 @ F,0,0,1,0,0,0,1 @ F,0,0,1,0,0,0,1 @ F,0,0,1,0,0,0,1 @ F,0,0,1,0,0,0,1 @ F,0,0,1,0,0,0,1 @ F,0,0,1,0,0,0,1 @ F,0,0,1,0,0,0,1 @ F,0,0,1,0,0,0,1 @ F,0,0,1,0,0,0,1 @ F,0,0,1,0,0,0,1 @ F,0,0,1,0,0,0,1 @ F,0,0,1,0,0,0,1 @ F,0,0,1,0,0,0,1 @ F,0,0,1,0,0,0,1 @ F,0,0,1,0,0,0,1 @ F,0,0,1,0,0,0,1 @ F,0,0,1,0,0,0,1 @ F,0,0,1,0,0,0,1 @ F,0,0,1,0,0,0,1 @ F,0,0,1,0,0,0,1 @ F,0,0,1,0,0,0,1 @ F,0,0,1,0,0,0,1 @ F,0,0,1,0,0,0,1 @ F,0,0,1,0,0,0,1 @ F,0,0,1,0,0,0,1 @ F,0,0,1,0,0,0,1 @ F,0,0,1,0,0,0,1 @ F,0,0,1,0,0,0,1 @ F,0,0,1,0,0,0,1 @ F,0,0,1,0,0,0,1 @ F,0,0,1,0,0,0,1 @ F,0,0,1,0,0,0,1 @ F,0,0,1,0,0,0,1 @ F,0,0,1,0,0,0,1 @ F,0,0,1,0,0,0,1 @ F,0,0,1,0,0,0,1 @ F,0,0,1,0,0,0,1 @ F,0,0,1,0,0,0,1 @ F,0,0,1,0,0,0,1 @ F,0,0,1,0,0,0,1 @ F,0,0,1,0,0,0,1 @ F,0,0,1,0,0,0,1 @ F,0,0,1,0,0,0,1 @ F,0,0,1,0,0,0,1 @ F,0,0,1,0,0,0,1 @ F,0,0,1,0,0,0,1 @ F,0,0,1,0,0,0,1 @ F,0,0,1,0,0,0,1 @ F,0,0,1,0,0,0,1 @ F,0,0,1,0,0,0,1 @ F,0,0,1,0,0,0,1 @ F,0,0,1,0,0,0,1 @ F,0,0,1,0,0,0,1 @ F,0,0,1,0,0,0,1 @ F,0,0,1,0,0,0,1 @ F,0,0,1,0,0,0,1 @ F,0,0,1,0,0,0,1 @ F,0,0,1,0,0,0,1 @ F,0,0,1,0,0,0,1 @ F,0,0,1,0,0,0,1 @ F,0,0,1,0,0,0,1 @ F,0,0,1,0,0,0,1 @ F,0,0,1,0,0,0,1 @ F,0,0,1,0,0,0,1 @ F,0,0,1,0,0,0,1 @ F,0,0,1,0,0,0,1 @ F,0,0,1,0,0,0,1 @ F,0,0,1,0,0,0,1 @ F,0,0,1,0,0,0,1 @ F,0,0,1,0,0,0,1 @ F,0,0,1,0,0,0,1 @ F,0,0,1,0,0,0,1 @ F,0,0,1,0,0,0,1 @ F,0,0,1,0,0,0,1 @ F,0,0,1,0,0,0,1 @ F,0,0,1,0,0,0,1 @ F,0,0,1,0,0,0,1 @ F,0,0,1,0,0,0,1 @ F,0,0,1,0,0,0,1 @ F,0,0,1,0,0,0,1 @ F,0,0,1,0,0,0,1 @ F,0,0,1,0,0,0,1 @ F,0,0,1,0,0,0,1 @ F,0,0,1,0,0,0,1 @ F,0,0,1,0,0,0,1 @ F,0,0,1,0,0,0,1 @ F,0,0,1,0,0,0,1 @ F,0,0,1,0,0,0,1 @ F,0,0,1,0,0,0,1 @ F,0,0,1,0,0,0,1 @ F,0,0,1,0,0,0,1 @ F,0,0,1,0,0,0,1 @ F,0,0,1,0,0,0,1 @ F,0,0,1,0,0,0,1 @ F,0,0,1,0,0,0,1 @ F,0,0,1,0,0,0,1 @ F,0,0,1,0,0,0,1 | F,0,0,1,0,0,0,1 @ F,0,0,1,0,0,0,1 @ F,0,0,1,0,0,0,1 @ F,0,0,1,0,0,0,1 @ F,0,0,1,0,0,0,1 @ F,0,0,1,0,0,0,1 @ F,0,0,1,0,0,0,1 @ F,0,0,1,0,0,0,1 @ F,0,0,1,0,0,0,1 @ F,0,0,1,0,0,0,1 @ F,0,0,1,0,0,0,1 @ F,0,0,1,0,0,0,1 @ F,0,0,1,0,0,0,1 @ F,0,0,1,0,0,0,1 @ F,0,0,1,0,0,0,1 @ F,0,0,1,0,0,0,1 @ F,0,0,1,0,0,0,1 @ F,0,0,1,0,0,0,1 @ F,0,0,1,0,0,0,1 @ F,0,0,1,0,0,0,1 @ F,0,0,1,0,0,0,1 @ F,0,0,1,0,0,0,1 @ F,0,0,1,0,0,0,1 @ F,0,0,1,0,0,0,1 @ F,0,0,1,0,0,0,1 @ F,0,0,1,0,0,0,1 @ F,0,0,1,0,0,0,1 @ F,0,0,1,0,0,0,1 @ F,0,0,1,0,0,0,1 @ F,0,0,1,0,0,0,1 @ F,0,0,1,0,0,0,1 @ F,0,0,1,0,0,0,1 @ F,0,0,1,0,0,0,1 @ F,0,0,1,0,0,0,1 @ F,0,0,1,0,0,0,1 @ F,0,0,1,0,0,0,1 @ F,0,0,1,0,0,0,1 @ F,0,0,1,0,0,0,1 @ F,0,0,1,0,0,0,1 @ F,0,0,1,0,0,0,1 @ F,0,0,1,0,0,0,1 @ F,0,0,1,0,0,0,1 | F,0,0,1,0,0,0,1 @ F,0,0,1,0,0,0,1 | F,0,0,1,0,0,0,1 @ F,0,0,1,0,0,0,1 | F,0,0,1,0,0,0,1 @ F,0,0,1,0,0,0,1 | F,0,0,1,0,0,0,1 @ F,0,0,1,0,0,0,1 @ F,0,0,1,0,0,0,1 @ F,0,0,1,0,0,0,1"
       radius="0"
       unit="px"
       method="auto"
       mode="F"
       chamfer_steps="1"
       flexible="false"
       use_knot_distance="true"
       apply_no_radius="true"
       apply_with_radius="true"
       only_selected="false"
       hide_knots="false" /></defs><g
     inkscape:label="Layer 1"
     inkscape:groupmode="layer"
     id="layer1"
     transform="translate(280.5846,-678.06005)"><circle
       style="fill:#ffffff;fill-opacity:1;stroke:none;stroke-width:3.53197;stroke-linejoin:round;paint-order:markers fill stroke"
       id="circle190"
       cx="-259.98026"
       cy="698.66431"
       r="20.604315" /><g
       id="g199"
       transform="translate(-635.1045,365.52545)"><path
         id="path190"
         style="fill:#e4532e;fill-opacity:1;stroke-width:0.753938;stroke-linecap:round;stroke-linejoin:round;paint-order:stroke fill markers"
         d="m 357.79095,340.45157 a 18.812635,18.812635 0 0 0 3.55844,5.49992 h 27.54974 a 18.812635,18.812635 0 0 0 3.55844,-5.49992 z" /><path
         id="path191"
         style="fill:#531a46;fill-opacity:1;stroke-width:1.4154;stroke-linecap:round;stroke-linejoin:round;paint-order:stroke fill markers"
         d="m 375.12426,314.32603 a 18.812635,18.812635 0 0 0 -18.68516,16.62535 h 37.37033 a 18.812635,18.812635 0 0 0 -18.68517,-16.62535 z" /><path
         id="path192"
         style="fill:#d82b2c;fill-opacity:1;stroke-width:0.685398;stroke-linecap:round;stroke-linejoin:round;paint-order:stroke fill markers"
         d="m 356.45408,335.45136 a 18.812635,18.812635 0 0 0 1.33687,5.00021 h 34.66662 a 18.812635,18.812635 0 0 0 1.33635,-5.00021 z" /><path
         id="path193"
         style="fill:#9f1e34;fill-opacity:1;stroke-width:0.616858;stroke-linecap:round;stroke-linejoin:round;paint-order:stroke fill markers"
         d="m 356.4391,330.95138 a 18.812635,18.812635 0 0 0 -0.12764,2.18746 18.812635,18.812635 0 0 0 0.14262,2.31252 h 37.33984 a 18.812635,18.812635 0 0 0 0.14315,-2.31252 18.812635,18.812635 0 0 0 -0.12764,-2.18746 z" /><path
         id="path194"
         style="fill:#eea83a;fill-opacity:1;stroke-width:0.822478;stroke-linecap:round;stroke-linejoin:round;paint-order:stroke fill markers"
         d="m 361.34939,345.95149 a 18.812635,18.812635 0 0 0 13.75265,6.00015 h 0.0444 a 18.812635,18.812635 0 0 0 13.75265,-6.00015 z" /><path
         id="path195"
         style="fill:#e4532e;fill-opacity:1;stroke-width:0.753938;stroke-linecap:round;stroke-linejoin:round;paint-order:stroke fill markers"
         d="m 357.79095,340.45157 a 18.812635,18.812635 0 0 0 3.55844,5.49992 h 27.54974 a 18.812635,18.812635 0 0 0 3.55844,-5.49992 z" /><path
         id="path196"
         style="fill:#531a46;fill-opacity:1;stroke-width:1.4154;stroke-linecap:round;stroke-linejoin:round;paint-order:stroke fill markers"
         d="m 375.12426,314.32603 a 18.812635,18.812635 0 0 0 -18.68516,16.62535 h 37.37033 a 18.812635,18.812635 0 0 0 -18.68517,-16.62535 z" /><path
         id="path197"
         style="fill:#d82b2c;fill-opacity:1;stroke-width:0.685398;stroke-linecap:round;stroke-linejoin:round;paint-order:stroke fill markers"
         d="m 356.45408,335.45136 a 18.812635,18.812635 0 0 0 1.33687,5.00021 h 34.66662 a 18.812635,18.812635 0 0 0 1.33635,-5.00021 z" /><path
         id="path198"
         style="fill:#9f1e34;fill-opacity:1;stroke-width:0.616858;stroke-linecap:round;stroke-linejoin:round;paint-order:stroke fill markers"
         d="m 356.4391,330.95138 a 18.812635,18.812635 0 0 0 -0.12764,2.18746 18.812635,18.812635 0 0 0 0.14262,2.31252 h 37.33984 a 18.812635,18.812635 0 0 0 0.14315,-2.31252 18.812635,18.812635 0 0 0 -0.12764,-2.18746 z" /><path
         id="path199"
         style="fill:#eea83a;fill-opacity:1;stroke-width:0.822478;stroke-linecap:round;stroke-linejoin:round;paint-order:stroke fill markers"
         d="m 361.34939,345.95149 a 18.812635,18.812635 0 0 0 13.75265,6.00015 h 0.0444 a 18.812635,18.812635 0 0 0 13.75265,-6.00015 z" /></g><path
       id="path200"
       style="fill:#f9f9f9;stroke-width:1.11265;stroke-linejoin:round;paint-order:markers fill stroke"
       transform="matrix(1.6483452,0,0,1.6483452,-384.79768,-694.09134)"
       d="m 121.30078,832.75 c -0.67807,0 -1.32783,0.20883 -1.80859,0.64453 -0.4671,0.42332 -0.74219,1.04059 -0.74219,1.67188 0,0.63129 0.27391,1.24943 0.74219,1.67382 0.0759,0.0688 0.17797,0.0968 0.26172,0.1543 -0.36032,0.0318 -0.64595,0.31742 -0.67774,0.67774 v 3.12109 c -0.10195,-0.57014 -0.26061,-1.11408 -0.53711,-1.5918 -0.42368,-0.75956 -1.02706,-1.37185 -1.77343,-1.78906 -0.73647,-0.41732 -1.56909,-0.62695 -2.45118,-0.62695 -0.59501,0 -1.09814,0.21497 -1.60547,0.41601 v -2.64258 c -7e-5,-0.41203 -0.33406,-0.74602 -0.74609,-0.74609 h -2.95508 c -0.41203,7e-5 -0.74602,0.33406 -0.74609,0.74609 v 11.54883 c 6e-5,0.41203 0.33406,0.74603 0.74609,0.7461 h 2.81641 c 0.17538,-0.0754 0.31518,-0.21524 0.39062,-0.39063 0.6156,0.33196 1.31116,0.5293 2.09961,0.5293 0.88208,0 1.7147,-0.20962 2.45118,-0.62696 0.001,-6.6e-4 0.003,-10e-4 0.004,-0.002 0.74221,-0.42586 1.34649,-1.03184 1.77149,-1.7832 l 0.002,-0.004 c 0.27611,-0.48428 0.4316,-1.03461 0.5332,-1.61133 v 3.14258 c 6e-5,0.41203 0.33407,0.74604 0.7461,0.7461 h 2.95703 c 0.41203,-7e-5 0.74603,-0.33407 0.74609,-0.7461 v -8.43554 c -0.031,-0.36175 -0.31794,-0.64865 -0.67969,-0.67969 0.0866,-0.0601 0.19378,-0.0875 0.27149,-0.16016 0.46822,-0.43896 0.73437,-1.06909 0.73437,-1.71289 0,-0.62798 -0.2822,-1.2451 -0.75781,-1.65039 -0.482,-0.41942 -1.12193,-0.61914 -1.79297,-0.61914 z m 14.56641,2.19336 c -0.41203,6e-5 -0.74603,0.33406 -0.7461,0.74609 v 1.44727 h -0.48437 c -0.41203,6e-5 -0.74603,0.33406 -0.7461,0.74609 v 0.96485 c -0.0231,-0.0453 -0.0103,-0.11407 -0.0352,-0.15821 -0.36447,-0.66387 -0.90081,-1.19189 -1.5625,-1.51758 -0.63742,-0.32347 -1.35274,-0.48632 -2.10742,-0.48632 -0.81437,0 -1.58185,0.18735 -2.25586,0.56054 -0.002,9.3e-4 -0.004,10e-4 -0.006,0.002 l 0.006,-0.002 c -0.0759,-0.19204 -0.22788,-0.34407 -0.41992,-0.41992 h -2.81641 c -0.41203,7e-5 -0.74603,0.33407 -0.74609,0.7461 v 8.43554 c 6e-5,0.41203 0.33406,0.74603 0.74609,0.7461 h 2.95703 c 0.41203,-7e-5 0.74603,-0.33407 0.74609,-0.7461 v -4.07812 c 0,-0.39063 0.0658,-0.65705 0.13868,-0.80274 0.0858,-0.17149 0.16569,-0.24747 0.2832,-0.30859 0.007,-0.004 0.0144,-0.008 0.0215,-0.0117 0.14979,-0.0839 0.29646,-0.12305 0.49024,-0.12305 0.27614,0 0.35041,0.0491 0.44336,0.15821 0.006,0.007 0.0129,0.0145 0.0195,0.0215 0.0602,0.0653 0.17578,0.30356 0.17578,0.80274 v 4.34179 c 6e-5,0.41203 0.33406,0.74603 0.74609,0.7461 h 0.0566 c -0.0405,0.0294 -0.0995,0.0171 -0.13671,0.0508 -0.28972,0.26249 -0.47852,0.68019 -0.47852,1.07422 0,0.26864 0.17878,0.4984 0.32617,0.73242 -0.0702,-0.13333 -0.17917,-0.24228 -0.3125,-0.3125 h -1.31055 c -0.0749,0.0516 -0.1398,0.11647 -0.1914,0.1914 -0.3256,-0.14844 -0.67216,-0.25586 -1.04102,-0.25586 -0.45908,0 -0.91,0.10818 -1.31054,0.31836 -0.001,6.6e-4 -0.003,0.001 -0.004,0.002 -0.35249,0.188 -0.63275,0.48349 -0.86719,0.81054 -0.24408,-0.30981 -0.51167,-0.60844 -0.87109,-0.78906 -0.45028,-0.23335 -0.95792,-0.3418 -1.48438,-0.3418 -0.52773,10e-6 -1.03626,0.10781 -1.48632,0.3418 -0.25785,0.1313 -0.42626,0.36824 -0.62891,0.56836 v -1.54883 c -7e-5,-0.41203 -0.33406,-0.74602 -0.74609,-0.74609 h -1.37696 c -0.41203,7e-5 -0.74602,0.33406 -0.74609,0.74609 v 1.54688 c -0.20289,-0.19888 -0.36941,-0.437 -0.62695,-0.56641 -0.44925,-0.23282 -0.95601,-0.3418 -1.48243,-0.3418 -0.52773,10e-6 -1.03625,0.10778 -1.48632,0.3418 -0.38995,0.19856 -0.6973,0.51148 -0.95118,0.85938 -0.01,-0.0187 -0.003,-0.0441 -0.0137,-0.0625 -0.20377,-0.37015 -0.5176,-0.68303 -0.89844,-0.8711 -0.35529,-0.17959 -0.75351,-0.26757 -1.15625,-0.26758 -0.36819,0 -0.71902,0.11369 -1.05078,0.26172 -0.0528,-0.0776 -0.11969,-0.14449 -0.19726,-0.19726 h -1.31055 c -0.41203,7e-5 -0.74602,0.33406 -0.74609,0.74609 v 0.0215 c -0.1788,-0.2082 -0.3353,-0.44261 -0.58203,-0.56446 -0.35667,-0.18027 -0.75544,-0.26757 -1.15821,-0.26758 -0.15291,0 -0.28622,0.0843 -0.43554,0.10938 v -0.74805 c -7e-5,-0.41203 -0.33407,-0.74603 -0.7461,-0.74609 h -1.375 c -0.41203,7e-5 -0.74602,0.33406 -0.74609,0.74609 v 1.10938 c -0.0331,-0.0216 -0.0419,-0.068 -0.0762,-0.0879 -0.45224,-0.26317 -0.97699,-0.38282 -1.52539,-0.38282 -0.5315,10e-6 -1.0446,0.10678 -1.50196,0.3379 -0.377853,0.18893 -0.669189,0.49467 -0.921873,0.82421 -0.249421,-0.34683 -0.550567,-0.6602 -0.935546,-0.84765 -0.427088,-0.2128 -0.902203,-0.31446 -1.388672,-0.31446 -0.513119,10e-6 -1.011417,0.11071 -1.453125,0.34375 -0.217252,0.11226 -0.34776,0.32456 -0.525391,0.48829 -0.04981,-0.32122 -0.301828,-0.57324 -0.623047,-0.62305 h -0.152344 v -0.27539 c -6e-5,-0.41203 -0.334061,-0.74604 -0.746093,-0.7461 h -1.376953 c -0.412033,6e-5 -0.746034,0.33407 -0.746094,0.7461 v 0.44922 c -0.286614,0.0618 -0.510499,0.28565 -0.572266,0.57226 v 1.0293 c 0.06176,0.28662 0.285649,0.5105 0.572266,0.57227 v 0.74609 c 0,0.6427 0.206391,1.26996 0.669922,1.68555 0.002,0.002 0.0039,0.004 0.0059,0.006 0.445064,0.39131 1.040134,0.55664 1.666016,0.55664 0.235092,0 0.464511,-0.0283 0.685547,-0.0781 0.243008,-0.05 0.476722,-0.1355 0.683593,-0.27344 0.06479,-0.1024 0.103675,-0.21904 0.113282,-0.33984 0.137599,0.10582 0.224873,0.26442 0.380859,0.3457 0.0039,0.002 0.0078,0.004 0.01172,0.006 0.465222,0.23255 0.992802,0.33985 1.550781,0.33985 0.447915,0 0.866948,-0.0639 1.248047,-0.21094 0.0033,-10e-4 0.0065,-0.003 0.0098,-0.004 0.369694,-0.14917 0.70405,-0.37398 0.970704,-0.66797 0.01233,-0.0817 0.01101,-0.16484 -0.0039,-0.24609 0.246282,0.30677 0.513937,0.60249 0.869137,0.78516 10e-4,6.7e-4 0.003,10e-4 0.004,0.002 0.45612,0.23122 0.97055,0.3418 1.50586,0.3418 0.55059,0 1.07508,-0.12273 1.52539,-0.38477 0.10509,-0.0612 0.14016,-0.19322 0.23437,-0.26953 0.0585,0.29709 0.2908,0.52936 0.58789,0.58789 h 1.375 c 0.38722,-0.017 0.69697,-0.32758 0.71289,-0.71484 0.016,0.38798 0.32687,0.69885 0.71485,0.71484 h 1.37695 c 0.19884,-0.0758 0.35588,-0.2328 0.43164,-0.43164 0.0758,0.19884 0.2328,0.35588 0.43164,0.43164 h 1.37695 c 0.38798,-0.016 0.69886,-0.32686 0.71485,-0.71484 0.0159,0.38726 0.32567,0.69786 0.71289,0.71484 h 1.37695 c 0.41203,-6e-5 0.74603,-0.33406 0.7461,-0.74609 v -0.12305 c 0.20659,0.20905 0.38211,0.45191 0.64648,0.58984 0.4488,0.23411 0.95865,0.34571 1.49023,0.34571 0.53011,0 1.03843,-0.11096 1.48633,-0.34375 l 0.002,-0.002 c 0.25444,-0.13115 0.41952,-0.36836 0.62109,-0.5664 v 0.0996 c 7e-5,0.41203 0.33406,0.74602 0.74609,0.74609 h 1.37696 c 0.41203,-7e-5 0.74602,-0.33406 0.74609,-0.74609 v -0.10157 c 0.20167,0.19963 0.36981,0.43522 0.625,0.56836 0.44879,0.23408 0.95865,0.34571 1.49023,0.34571 0.53014,0 1.03935,-0.11043 1.48829,-0.34375 l 0.002,-0.002 c 0.41441,-0.21362 0.75146,-0.53934 1.00781,-0.91992 0.0438,0.0519 0.099,0.0903 0.14649,0.13867 l -0.48047,0.92774 c -0.17237,0.33209 -0.0721,0.7405 0.23437,0.95508 0.3268,0.22878 0.70335,0.39063 1.11328,0.49609 h 0.002 c 0.40743,0.10323 0.82948,0.15233 1.26171,0.15234 0.85463,-1e-5 1.62871,-0.21595 2.19922,-0.72461 0.32032,-0.28558 0.52705,-0.65806 0.66407,-1.07226 0.0716,0.14044 0.18573,0.25462 0.32617,0.32617 h 1.37695 c 0.41203,-7e-5 0.74602,-0.33406 0.74609,-0.74609 v -0.11133 c 0.20537,0.20339 0.37656,0.44153 0.63868,0.57812 0.004,0.002 0.008,0.004 0.0117,0.006 0.46622,0.23304 0.99476,0.33985 1.55274,0.33985 0.44791,0 0.86695,-0.0639 1.24805,-0.21094 0.003,-0.001 0.007,-0.003 0.01,-0.004 0.23015,-0.0929 0.40779,-0.2644 0.60156,-0.41406 0.009,0.04 0.0215,0.0792 0.0371,0.11719 0.28557,0.17136 0.60666,0.2839 0.96875,0.37304 h 0.002 c 0.37503,0.0909 0.76145,0.13868 1.15429,0.13868 0.49444,0 0.94222,-0.0674 1.34375,-0.23047 h 0.002 c 0.3776,-0.15168 0.71805,-0.37938 0.96289,-0.70313 0.23988,-0.31177 0.3789,-0.70999 0.3789,-1.10351 0,-0.3112 -0.0571,-0.62592 -0.22265,-0.91211 -0.0841,-0.14781 -0.2309,-0.24763 -0.35742,-0.36524 l 0.3789,-0.85547 c 0.15468,-0.34925 0.0207,-0.75892 -0.31055,-0.94921 -0.28377,-0.16318 -0.59854,-0.26537 -0.93945,-0.33008 -10e-4,-2.7e-4 -0.003,2.6e-4 -0.004,0 -0.32772,-0.0676 -0.65396,-0.10157 -0.97852,-0.10157 -0.47855,0 -0.91992,0.0647 -1.32031,0.22657 -0.38172,0.14951 -0.72605,0.38345 -0.97071,0.70703 l -0.002,0.002 c -0.008,0.0112 -0.006,0.0277 -0.0137,0.0391 -0.22149,-0.24622 -0.4272,-0.51439 -0.72656,-0.66015 -0.42601,-0.21226 -0.90026,-0.31446 -1.38672,-0.31446 -0.51312,10e-6 -1.01228,0.11012 -1.45508,0.34375 -0.24989,0.12913 -0.40707,0.36624 -0.60352,0.5625 v -0.0957 c -0.0624,-0.1031 -0.14885,-0.18954 -0.25195,-0.25195 0.22119,-0.26627 0.4043,-0.59533 0.4043,-0.93555 0,-0.39174 -0.19318,-0.81529 -0.49414,-1.07226 -0.0255,-0.022 -0.0649,-0.0112 -0.0918,-0.0312 h 0.92773 c 0.41203,-6e-5 0.74604,-0.33407 0.7461,-0.7461 v -4.82422 c 0,-0.27907 -0.13413,-0.46801 -0.16406,-0.72656 0.0752,0.17102 0.21179,0.30763 0.38281,0.38281 h 0.48437 v 2.08594 c 0,1.21754 0.36447,2.27781 1.15039,2.98242 l 0.006,0.006 c 0.76819,0.67546 1.81305,0.97852 3.01368,0.97852 0.44269,0 0.87479,-0.047 1.29492,-0.14258 0.43411,-0.0885 0.83126,-0.23778 1.17187,-0.46484 0.28374,-0.18955 0.40276,-0.54741 0.28906,-0.86914 l -0.73046,-2.06836 c -0.16455,-0.46725 -0.73035,-0.64741 -1.13477,-0.36133 -0.11261,0.0798 -0.24106,0.12694 -0.4707,0.12695 -0.0861,0 -0.0798,-0.007 -0.0977,-0.0273 -0.0217,-0.0227 -0.0449,-0.0387 -0.0449,-0.19141 v -2.05469 h 1.18359 c 0.41203,-6e-5 0.74603,-0.33406 0.7461,-0.74609 v -2.21094 c -7e-5,-0.41203 -0.33407,-0.74603 -0.7461,-0.74609 h -1.18359 v -1.44727 c -7e-5,-0.41203 -0.33406,-0.74602 -0.74609,-0.74609 z m -38.875003,1.74219 c -0.893644,0 -1.702441,0.18908 -2.390625,0.58007 -0.07561,-0.20342 -0.236036,-0.36384 -0.439453,-0.43945 H 91.34375 c -0.412033,6e-5 -0.746034,0.33407 -0.746094,0.7461 v 8.43554 c 6e-5,0.41203 0.334061,0.74604 0.746094,0.7461 h 2.957031 c 0.412033,-6e-5 0.746034,-0.33407 0.746094,-0.7461 v -3.875 c 0,-0.61026 0.1409,-0.88576 0.300781,-1.02344 0.0033,-0.002 0.0065,-0.004 0.0098,-0.006 0.224752,-0.19978 0.502405,-0.31056 0.966797,-0.31055 0.0918,0 0.166936,0.005 0.226562,0.0117 0.0279,0.003 0.05593,0.004 0.08398,0.004 0.05314,0 0.136623,0.007 0.24414,0.0234 0.20875,0.0294 0.420179,-0.0309 0.582031,-0.16601 v 1.62109 c 0,0.96663 0.163194,1.82079 0.535157,2.53906 0.0026,0.005 0.0052,0.009 0.0078,0.0137 0.374247,0.68614 0.91955,1.23226 1.595703,1.57032 0.002,6.7e-4 0.0039,10e-4 0.0059,0.002 0.659914,0.32375 1.397234,0.48047 2.179694,0.48047 0.74631,0 1.46234,-0.18551 2.11132,-0.53321 0.0755,0.17758 0.21696,0.31899 0.39454,0.39454 h 2.8164 c 0.41203,-6e-5 0.74604,-0.33407 0.7461,-0.7461 v -8.43554 c -6e-5,-0.41203 -0.33407,-0.74604 -0.7461,-0.7461 h -2.95508 c -0.41203,7e-5 -0.74603,0.33407 -0.74609,0.7461 v 4.0625 c 0,0.38575 -0.063,0.65357 -0.14258,0.82031 -0.0917,0.18162 -0.17964,0.26534 -0.27344,0.31836 -0.12471,0.0705 -0.24884,0.10547 -0.42578,0.10547 -0.28568,0 -0.37671,-0.0572 -0.47656,-0.16797 -0.0536,-0.0659 -0.17773,-0.34905 -0.17773,-0.90625 v -4.23242 c -6e-5,-0.41203 -0.33407,-0.74604 -0.7461,-0.7461 h -2.957032 c -0.263583,0.0677 -0.469408,0.27353 -0.537109,0.53711 -0.03179,-0.36031 -0.317423,-0.64594 -0.677735,-0.67773 z M 128.8418,848.5293 c 0.004,0.002 0.007,0.005 0.004,0.004 -0.002,-8.8e-4 -0.002,-0.003 -0.004,-0.004 z m -18.58985,0.01 c -0.002,0.002 -0.008,0.006 -0.01,0.006 z m 31.01172,1.67969 c 0.009,0.006 0.0156,0.0124 0.01,0.01 -0.004,-0.002 -0.006,-0.007 -0.01,-0.01 z m -47.556639,1.00781 c 0.0031,0 0.01509,0.009 0.01953,0.01 -0.01044,10e-4 -0.02086,0.002 -0.03125,0.004 0.01933,-0.0137 0.05194,-0.0137 0.01172,-0.0137 z"
       inkscape:path-effect="#path-effect205"
       inkscape:original-d="m 121.30078,832.75 c -0.67807,0 -1.32783,0.20883 -1.80859,0.64453 -0.4671,0.42332 -0.74219,1.04059 -0.74219,1.67188 0,0.63129 0.27391,1.24943 0.74219,1.67382 0.0759,0.0688 0.17797,0.0968 0.26172,0.1543 -0.36032,0.0318 -0.64595,0.31742 -0.67774,0.67774 v 3.12109 c -0.10195,-0.57014 -0.26061,-1.11408 -0.53711,-1.5918 -0.42368,-0.75956 -1.02706,-1.37185 -1.77343,-1.78906 -0.73647,-0.41732 -1.56909,-0.62695 -2.45118,-0.62695 -0.59501,0 -1.09814,0.21497 -1.60547,0.41601 v -2.64258 c -7e-5,-0.41203 -0.33406,-0.74602 -0.74609,-0.74609 h -2.95508 c -0.41203,7e-5 -0.74602,0.33406 -0.74609,0.74609 v 11.54883 c 6e-5,0.41203 0.33406,0.74603 0.74609,0.7461 h 2.81641 c 0.17538,-0.0754 0.31518,-0.21524 0.39062,-0.39063 0.6156,0.33196 1.31116,0.5293 2.09961,0.5293 0.88208,0 1.7147,-0.20962 2.45118,-0.62696 0.001,-6.6e-4 0.003,-10e-4 0.004,-0.002 0.74221,-0.42586 1.34649,-1.03184 1.77149,-1.7832 l 0.002,-0.004 c 0.27611,-0.48428 0.4316,-1.03461 0.5332,-1.61133 v 3.14258 c 6e-5,0.41203 0.33407,0.74604 0.7461,0.7461 h 2.95703 c 0.41203,-7e-5 0.74603,-0.33407 0.74609,-0.7461 v -8.43554 c -0.031,-0.36175 -0.31794,-0.64865 -0.67969,-0.67969 0.0866,-0.0601 0.19378,-0.0875 0.27149,-0.16016 0.46822,-0.43896 0.73437,-1.06909 0.73437,-1.71289 0,-0.62798 -0.2822,-1.2451 -0.75781,-1.65039 -0.482,-0.41942 -1.12193,-0.61914 -1.79297,-0.61914 z m 14.56641,2.19336 c -0.41203,6e-5 -0.74603,0.33406 -0.7461,0.74609 v 1.44727 h -0.48437 c -0.41203,6e-5 -0.74603,0.33406 -0.7461,0.74609 v 0.96485 c -0.0231,-0.0453 -0.0103,-0.11407 -0.0352,-0.15821 -0.36447,-0.66387 -0.90081,-1.19189 -1.5625,-1.51758 -0.63742,-0.32347 -1.35274,-0.48632 -2.10742,-0.48632 -0.81437,0 -1.58185,0.18735 -2.25586,0.56054 -0.002,9.3e-4 -0.004,10e-4 -0.006,0.002 l 0.006,-0.002 c -0.0759,-0.19204 -0.22788,-0.34407 -0.41992,-0.41992 h -2.81641 c -0.41203,7e-5 -0.74603,0.33407 -0.74609,0.7461 v 8.43554 c 6e-5,0.41203 0.33406,0.74603 0.74609,0.7461 h 2.95703 c 0.41203,-7e-5 0.74603,-0.33407 0.74609,-0.7461 v -4.07812 c 0,-0.39063 0.0658,-0.65705 0.13868,-0.80274 0.0858,-0.17149 0.16569,-0.24747 0.2832,-0.30859 0.007,-0.004 0.0144,-0.008 0.0215,-0.0117 0.14979,-0.0839 0.29646,-0.12305 0.49024,-0.12305 0.27614,0 0.35041,0.0491 0.44336,0.15821 0.006,0.007 0.0129,0.0145 0.0195,0.0215 0.0602,0.0653 0.17578,0.30356 0.17578,0.80274 v 4.34179 c 6e-5,0.41203 0.33406,0.74603 0.74609,0.7461 h 0.0566 c -0.0405,0.0294 -0.0995,0.0171 -0.13671,0.0508 -0.28972,0.26249 -0.47852,0.68019 -0.47852,1.07422 0,0.26864 0.17878,0.4984 0.32617,0.73242 -0.0702,-0.13333 -0.17917,-0.24228 -0.3125,-0.3125 h -1.31055 c -0.0749,0.0516 -0.1398,0.11647 -0.1914,0.1914 -0.3256,-0.14844 -0.67216,-0.25586 -1.04102,-0.25586 -0.45908,0 -0.91,0.10818 -1.31054,0.31836 -0.001,6.6e-4 -0.003,0.001 -0.004,0.002 -0.35249,0.188 -0.63275,0.48349 -0.86719,0.81054 -0.24408,-0.30981 -0.51167,-0.60844 -0.87109,-0.78906 -0.45028,-0.23335 -0.95792,-0.3418 -1.48438,-0.3418 -0.52773,10e-6 -1.03626,0.10781 -1.48632,0.3418 -0.25785,0.1313 -0.42626,0.36824 -0.62891,0.56836 v -1.54883 c -7e-5,-0.41203 -0.33406,-0.74602 -0.74609,-0.74609 h -1.37696 c -0.41203,7e-5 -0.74602,0.33406 -0.74609,0.74609 v 1.54688 c -0.20289,-0.19888 -0.36941,-0.437 -0.62695,-0.56641 -0.44925,-0.23282 -0.95601,-0.3418 -1.48243,-0.3418 -0.52773,10e-6 -1.03625,0.10778 -1.48632,0.3418 -0.38995,0.19856 -0.6973,0.51148 -0.95118,0.85938 -0.01,-0.0187 -0.003,-0.0441 -0.0137,-0.0625 -0.20377,-0.37015 -0.5176,-0.68303 -0.89844,-0.8711 -0.35529,-0.17959 -0.75351,-0.26757 -1.15625,-0.26758 -0.36819,0 -0.71902,0.11369 -1.05078,0.26172 -0.0528,-0.0776 -0.11969,-0.14449 -0.19726,-0.19726 h -1.31055 c -0.41203,7e-5 -0.74602,0.33406 -0.74609,0.74609 v 0.0215 c -0.1788,-0.2082 -0.3353,-0.44261 -0.58203,-0.56446 -0.35667,-0.18027 -0.75544,-0.26757 -1.15821,-0.26758 -0.15291,0 -0.28622,0.0843 -0.43554,0.10938 v -0.74805 c -7e-5,-0.41203 -0.33407,-0.74603 -0.7461,-0.74609 h -1.375 c -0.41203,7e-5 -0.74602,0.33406 -0.74609,0.74609 v 1.10938 c -0.0331,-0.0216 -0.0419,-0.068 -0.0762,-0.0879 -0.45224,-0.26317 -0.97699,-0.38282 -1.52539,-0.38282 -0.5315,10e-6 -1.0446,0.10678 -1.50196,0.3379 -0.377853,0.18893 -0.669189,0.49467 -0.921873,0.82421 -0.249421,-0.34683 -0.550567,-0.6602 -0.935546,-0.84765 -0.427088,-0.2128 -0.902203,-0.31446 -1.388672,-0.31446 -0.513119,10e-6 -1.011417,0.11071 -1.453125,0.34375 -0.217252,0.11226 -0.34776,0.32456 -0.525391,0.48829 -0.04981,-0.32122 -0.301828,-0.57324 -0.623047,-0.62305 h -0.152344 v -0.27539 c -6e-5,-0.41203 -0.334061,-0.74604 -0.746093,-0.7461 h -1.376953 c -0.412033,6e-5 -0.746034,0.33407 -0.746094,0.7461 v 0.44922 c -0.286614,0.0618 -0.510499,0.28565 -0.572266,0.57226 v 1.0293 c 0.06176,0.28662 0.285649,0.5105 0.572266,0.57227 v 0.74609 c 0,0.6427 0.206391,1.26996 0.669922,1.68555 0.002,0.002 0.0039,0.004 0.0059,0.006 0.445064,0.39131 1.040134,0.55664 1.666016,0.55664 0.235092,0 0.464511,-0.0283 0.685547,-0.0781 0.243008,-0.05 0.476722,-0.1355 0.683593,-0.27344 0.06479,-0.1024 0.103675,-0.21904 0.113282,-0.33984 0.137599,0.10582 0.224873,0.26442 0.380859,0.3457 0.0039,0.002 0.0078,0.004 0.01172,0.006 0.465222,0.23255 0.992802,0.33985 1.550781,0.33985 0.447915,0 0.866948,-0.0639 1.248047,-0.21094 0.0033,-10e-4 0.0065,-0.003 0.0098,-0.004 0.369694,-0.14917 0.70405,-0.37398 0.970704,-0.66797 0.01233,-0.0817 0.01101,-0.16484 -0.0039,-0.24609 0.246282,0.30677 0.513937,0.60249 0.869137,0.78516 10e-4,6.7e-4 0.003,10e-4 0.004,0.002 0.45612,0.23122 0.97055,0.3418 1.50586,0.3418 0.55059,0 1.07508,-0.12273 1.52539,-0.38477 0.10509,-0.0612 0.14016,-0.19322 0.23437,-0.26953 0.0585,0.29709 0.2908,0.52936 0.58789,0.58789 h 1.375 c 0.38722,-0.017 0.69697,-0.32758 0.71289,-0.71484 0.016,0.38798 0.32687,0.69885 0.71485,0.71484 h 1.37695 c 0.19884,-0.0758 0.35588,-0.2328 0.43164,-0.43164 0.0758,0.19884 0.2328,0.35588 0.43164,0.43164 h 1.37695 c 0.38798,-0.016 0.69886,-0.32686 0.71485,-0.71484 0.0159,0.38726 0.32567,0.69786 0.71289,0.71484 h 1.37695 c 0.41203,-6e-5 0.74603,-0.33406 0.7461,-0.74609 v -0.12305 c 0.20659,0.20905 0.38211,0.45191 0.64648,0.58984 0.4488,0.23411 0.95865,0.34571 1.49023,0.34571 0.53011,0 1.03843,-0.11096 1.48633,-0.34375 l 0.002,-0.002 c 0.25444,-0.13115 0.41952,-0.36836 0.62109,-0.5664 v 0.0996 c 7e-5,0.41203 0.33406,0.74602 0.74609,0.74609 h 1.37696 c 0.41203,-7e-5 0.74602,-0.33406 0.74609,-0.74609 v -0.10157 c 0.20167,0.19963 0.36981,0.43522 0.625,0.56836 0.44879,0.23408 0.95865,0.34571 1.49023,0.34571 0.53014,0 1.03935,-0.11043 1.48829,-0.34375 l 0.002,-0.002 c 0.41441,-0.21362 0.75146,-0.53934 1.00781,-0.91992 0.0438,0.0519 0.099,0.0903 0.14649,0.13867 l -0.48047,0.92774 c -0.17237,0.33209 -0.0721,0.7405 0.23437,0.95508 0.3268,0.22878 0.70335,0.39063 1.11328,0.49609 6.7e-4,0 0.001,0 0.002,0 0.40743,0.10323 0.82948,0.15233 1.26171,0.15234 0.85463,-1e-5 1.62871,-0.21595 2.19922,-0.72461 0.32032,-0.28558 0.52705,-0.65806 0.66407,-1.07226 0.0716,0.14044 0.18573,0.25462 0.32617,0.32617 h 1.37695 c 0.41203,-7e-5 0.74602,-0.33406 0.74609,-0.74609 v -0.11133 c 0.20537,0.20339 0.37656,0.44153 0.63868,0.57812 0.004,0.002 0.008,0.004 0.0117,0.006 0.46622,0.23304 0.99476,0.33985 1.55274,0.33985 0.44791,0 0.86695,-0.0639 1.24805,-0.21094 0.003,-0.001 0.007,-0.003 0.01,-0.004 0.23015,-0.0929 0.40779,-0.2644 0.60156,-0.41406 0.009,0.04 0.0215,0.0792 0.0371,0.11719 0.28557,0.17136 0.60666,0.2839 0.96875,0.37304 6.7e-4,0 10e-4,0 0.002,0 0.37503,0.0909 0.76145,0.13868 1.15429,0.13868 0.49444,0 0.94222,-0.0674 1.34375,-0.23047 h 0.002 c 0.3776,-0.15168 0.71805,-0.37938 0.96289,-0.70313 0.23988,-0.31177 0.3789,-0.70999 0.3789,-1.10351 0,-0.3112 -0.0571,-0.62592 -0.22265,-0.91211 -0.0841,-0.14781 -0.2309,-0.24763 -0.35742,-0.36524 l 0.3789,-0.85547 c 0.15468,-0.34925 0.0207,-0.75892 -0.31055,-0.94921 -0.28377,-0.16318 -0.59854,-0.26537 -0.93945,-0.33008 -10e-4,-2.7e-4 -0.003,2.6e-4 -0.004,0 -0.32772,-0.0676 -0.65396,-0.10157 -0.97852,-0.10157 -0.47855,0 -0.91992,0.0647 -1.32031,0.22657 -0.38172,0.14951 -0.72605,0.38345 -0.97071,0.70703 -6.7e-4,6.7e-4 -0.001,10e-4 -0.002,0.002 -0.008,0.0112 -0.006,0.0277 -0.0137,0.0391 -0.22149,-0.24622 -0.4272,-0.51439 -0.72656,-0.66015 -0.42601,-0.21226 -0.90026,-0.31446 -1.38672,-0.31446 -0.51312,10e-6 -1.01228,0.11012 -1.45508,0.34375 -0.24989,0.12913 -0.40707,0.36624 -0.60352,0.5625 v -0.0957 c -0.0624,-0.1031 -0.14885,-0.18954 -0.25195,-0.25195 0.22119,-0.26627 0.4043,-0.59533 0.4043,-0.93555 0,-0.39174 -0.19318,-0.81529 -0.49414,-1.07226 -0.0255,-0.022 -0.0649,-0.0112 -0.0918,-0.0312 h 0.92773 c 0.41203,-6e-5 0.74604,-0.33407 0.7461,-0.7461 v -4.82422 c 0,-0.27907 -0.13413,-0.46801 -0.16406,-0.72656 0.0752,0.17102 0.21179,0.30763 0.38281,0.38281 h 0.48437 v 2.08594 c 0,1.21754 0.36447,2.27781 1.15039,2.98242 0.002,0.002 0.004,0.004 0.006,0.006 0.76819,0.67546 1.81305,0.97852 3.01368,0.97852 0.44269,0 0.87479,-0.047 1.29492,-0.14258 0.43411,-0.0885 0.83126,-0.23778 1.17187,-0.46484 0.28374,-0.18955 0.40276,-0.54741 0.28906,-0.86914 l -0.73046,-2.06836 c -0.16455,-0.46725 -0.73035,-0.64741 -1.13477,-0.36133 -0.11261,0.0798 -0.24106,0.12694 -0.4707,0.12695 -0.0861,0 -0.0798,-0.007 -0.0977,-0.0273 -0.0217,-0.0227 -0.0449,-0.0387 -0.0449,-0.19141 v -2.05469 h 1.18359 c 0.41203,-6e-5 0.74603,-0.33406 0.7461,-0.74609 v -2.21094 c -7e-5,-0.41203 -0.33407,-0.74603 -0.7461,-0.74609 h -1.18359 v -1.44727 c -7e-5,-0.41203 -0.33406,-0.74602 -0.74609,-0.74609 z m -38.875003,1.74219 c -0.893644,0 -1.702441,0.18908 -2.390625,0.58007 -0.07561,-0.20342 -0.236036,-0.36384 -0.439453,-0.43945 H 91.34375 c -0.412033,6e-5 -0.746034,0.33407 -0.746094,0.7461 v 8.43554 c 6e-5,0.41203 0.334061,0.74604 0.746094,0.7461 h 2.957031 c 0.412033,-6e-5 0.746034,-0.33407 0.746094,-0.7461 v -3.875 c 0,-0.61026 0.1409,-0.88576 0.300781,-1.02344 0.0033,-0.002 0.0065,-0.004 0.0098,-0.006 0.224752,-0.19978 0.502405,-0.31056 0.966797,-0.31055 0.0918,0 0.166936,0.005 0.226562,0.0117 0.0279,0.003 0.05593,0.004 0.08398,0.004 0.05314,0 0.136623,0.007 0.24414,0.0234 0.20875,0.0294 0.420179,-0.0309 0.582031,-0.16601 v 1.62109 c 0,0.96663 0.163194,1.82079 0.535157,2.53906 0.0026,0.005 0.0052,0.009 0.0078,0.0137 0.374247,0.68614 0.91955,1.23226 1.595703,1.57032 0.002,6.7e-4 0.0039,10e-4 0.0059,0.002 0.659914,0.32375 1.397234,0.48047 2.179694,0.48047 0.74631,0 1.46234,-0.18551 2.11132,-0.53321 0.0755,0.17758 0.21696,0.31899 0.39454,0.39454 h 2.8164 c 0.41203,-6e-5 0.74604,-0.33407 0.7461,-0.7461 v -8.43554 c -6e-5,-0.41203 -0.33407,-0.74604 -0.7461,-0.7461 h -2.95508 c -0.41203,7e-5 -0.74603,0.33407 -0.74609,0.7461 v 4.0625 c 0,0.38575 -0.063,0.65357 -0.14258,0.82031 -0.0917,0.18162 -0.17964,0.26534 -0.27344,0.31836 -0.12471,0.0705 -0.24884,0.10547 -0.42578,0.10547 -0.28568,0 -0.37671,-0.0572 -0.47656,-0.16797 -0.0536,-0.0659 -0.17773,-0.34905 -0.17773,-0.90625 v -4.23242 c -6e-5,-0.41203 -0.33407,-0.74604 -0.7461,-0.7461 h -2.957032 c -0.263583,0.0677 -0.469408,0.27353 -0.537109,0.53711 -0.03179,-0.36031 -0.317423,-0.64594 -0.677735,-0.67773 z M 128.8418,848.5293 c 0.004,0.002 0.007,0.005 0.004,0.004 -0.002,-8.8e-4 -0.002,-0.003 -0.004,-0.004 z m -18.58985,0.01 c -0.002,0.002 -0.008,0.006 -0.01,0.006 z m 31.01172,1.67969 c 0.009,0.006 0.0156,0.0124 0.01,0.01 -0.004,-0.002 -0.006,-0.007 -0.01,-0.01 z m -47.556639,1.00781 c 0.0031,0 0.01509,0.009 0.01953,0.01 -0.01044,10e-4 -0.02086,0.002 -0.03125,0.004 0.01933,-0.0137 0.05194,-0.0137 0.01172,-0.0137 z"
       sodipodi:nodetypes="cssscccccscccccccccsccccccccccccscccccccccccsccccccccccssscsccscsccsccccsscccsccccccccsccccscccsccscccccccscccsccccscccccccsccscccscsscccscssccccccccccccscsscccsccsccscccccsccsscccscscsscccccscccsccscccscccccsccccsccccscccsccscccccscscccccccccsccccccccsccsccccsccccsccccccccscsscsccccsscccccccccccccc" /><path
       style="font-weight:800;font-size:42.6667px;font-family:Montserrat;-inkscape-font-specification:'Montserrat Ultra-Bold';white-space:pre;stroke-width:4.11264;stroke-linecap:round;stroke-linejoin:round;paint-order:stroke fill markers"
       d="m 1324.3351,-362.67594 v -23.12535 h 7.7227 v 6.74134 l -1.152,-1.92 q 1.024,-2.60267 3.328,-3.88267 2.304,-1.32267 5.5893,-1.32267 v 7.29601 q -0.5547,-0.0853 -0.9813,-0.0853 -0.384,-0.0427 -0.8534,-0.0427 -2.4746,0 -4.0106,1.36533 -1.536,1.32267 -1.536,4.352 v 10.62401 z m 28.6293,0.384 q -2.816,0 -5.0773,-1.10933 -2.2187,-1.10934 -3.4987,-3.45601 -1.2373,-2.38933 -1.2373,-6.016 v -12.92801 h 8.1066 v 11.60534 q 0,2.688 0.9814,3.84001 1.024,1.152 2.8586,1.152 1.1947,0 2.176,-0.55467 0.9814,-0.55467 1.5787,-1.74934 0.5973,-1.23733 0.5973,-3.15733 v -11.13601 h 8.1067 v 23.12535 h -7.7227 v -6.528 l 1.4934,1.83466 q -1.1947,2.56001 -3.456,3.84001 -2.2614,1.23733 -4.9067,1.23733 z m 34.3467,0 q -3.1147,0 -5.2054,-1.28 -2.048,-1.28 -3.072,-3.92534 -1.024,-2.64533 -1.024,-6.784 0,-4.05334 1.0667,-6.69867 1.1093,-2.64534 3.2,-3.92534 2.0907,-1.28 5.0347,-1.28 3.1573,0 5.7173,1.45067 2.6027,1.45067 4.096,4.13867 1.536,2.64533 1.536,6.31467 0,3.712 -1.536,6.4 -1.4933,2.64534 -4.096,4.13867 -2.56,1.45067 -5.7173,1.45067 z m -14.5494,-0.384 v -31.65869 h 8.1067 v 12.41601 l -0.4267,7.63734 0.043,7.63734 v 3.968 z m 12.8427,-6.05867 q 1.3653,0 2.432,-0.64 1.1093,-0.64 1.7493,-1.87734 0.6827,-1.28 0.6827,-3.02933 0,-1.74934 -0.6827,-2.944 -0.64,-1.23734 -1.7493,-1.87734 -1.0667,-0.64 -2.432,-0.64 -1.3653,0 -2.4747,0.64 -1.0666,0.64 -1.7493,1.87734 -0.64,1.19466 -0.64,2.944 0,1.74933 0.64,3.02933 0.6827,1.23734 1.7493,1.87734 1.1094,0.64 2.4747,0.64 z m 16.8107,6.05867 v -23.12535 h 8.1066 v 23.12535 z m 4.0533,-25.68535 q -2.2187,0 -3.584,-1.23734 -1.3653,-1.23733 -1.3653,-3.072 0,-1.83467 1.3653,-3.072 1.3653,-1.23733 3.584,-1.23733 2.2187,0 3.584,1.19466 1.3653,1.152 1.3653,2.98667 0,1.92 -1.3653,3.2 -1.3227,1.23734 -3.584,1.23734 z m 24.3627,2.176 q 2.688,0 4.864,1.10933 2.176,1.06667 3.4133,3.32801 1.28,2.26133 1.28,5.84533 v 13.22668 h -8.1067 v -11.90401 q 0,-2.47467 -1.024,-3.584 -0.9813,-1.152 -2.7733,-1.152 -1.28,0 -2.3467,0.59733 -1.0666,0.55467 -1.664,1.74934 -0.5973,1.19466 -0.5973,3.11467 v 11.17867 h -8.1067 v -23.12535 h 7.7227 v 6.57067 l -1.4933,-1.92 q 1.3226,-2.51733 3.6266,-3.75467 2.304,-1.28 5.2054,-1.28 z m 24.96,23.89335 q -4.4374,0 -6.9121,-2.176 -2.4746,-2.21867 -2.4746,-6.65601 v -19.84001 h 8.1067 v 19.75468 q 0,1.23734 0.6826,1.96267 0.6827,0.68267 1.7494,0.68267 1.4506,0 2.4746,-0.72534 l 2.0054,5.67467 q -1.024,0.68267 -2.5174,0.98134 -1.4933,0.34133 -3.1146,0.34133 z m -12.7574,-16.59734 v -6.05868 h 16.768 v 6.05868 z"
       id="text201"
       transform="matrix(0.60119971,0,0,0.60119971,-1030.4204,918.46068)"
       aria-label="rubint" /><path
       style="font-weight:800;font-size:42.6667px;font-family:Montserrat;-inkscape-font-specification:'Montserrat Ultra-Bold';white-space:pre;stroke-width:8.83199;stroke-linecap:round;stroke-linejoin:round;paint-order:stroke fill markers"
       d="m 1334.6604,-362.29194 q -4.4373,0 -6.912,-2.176 -2.4746,-2.21867 -2.4746,-6.65601 v -19.84001 h 8.1066 v 19.75468 q 0,1.23734 0.6827,1.96267 0.6827,0.68267 1.7493,0.68267 1.4507,0 2.4747,-0.72534 l 2.0053,5.67467 q -1.024,0.68267 -2.5173,0.98134 -1.4933,0.34133 -3.1147,0.34133 z m -12.7573,-16.59734 v -6.05868 h 16.768 v 6.05868 z m 32.9386,16.59734 q -4.096,0 -7.168,-1.536 -3.0294,-1.57867 -4.736,-4.26667 -1.664,-2.73067 -1.664,-6.18667 0,-3.456 1.6213,-6.14401 1.664,-2.73066 4.5653,-4.224 2.9014,-1.536 6.5281,-1.536 3.4133,0 6.2293,1.408 2.816,1.36534 4.48,4.05334 1.664,2.688 1.664,6.528 0,0.42667 -0.043,0.98134 -0.043,0.55466 -0.085,1.024 h -18.304 v -4.26667 h 13.9947 l -3.072,1.19466 q 0.043,-1.57866 -0.5974,-2.73066 -0.5973,-1.152 -1.7066,-1.79201 -1.0667,-0.64 -2.5174,-0.64 -1.4506,0 -2.56,0.64 -1.0666,0.64001 -1.664,1.83467 -0.5973,1.152 -0.5973,2.73067 v 1.23734 q 0,1.70666 0.6827,2.944 0.7253,1.23733 2.048,1.92 1.3226,0.64 3.1573,0.64 1.7067,0 2.9013,-0.46933 1.2374,-0.512 2.432,-1.536 l 4.2667,4.43733 q -1.664,1.83467 -4.096,2.816 -2.432,0.93867 -5.76,0.93867 z m 27.0933,0 q -3.84,0 -6.8694,-1.536 -2.9866,-1.536 -4.6933,-4.224 -1.7067,-2.73067 -1.7067,-6.22934 0,-3.49867 1.7067,-6.18667 1.7067,-2.688 4.6933,-4.18134 3.0294,-1.536 6.8694,-1.536 3.9253,0 6.784,1.664 2.8586,1.664 4.0533,4.69334 l -6.272,3.2 q -0.8107,-1.62133 -2.0053,-2.34667 -1.1947,-0.768 -2.6027,-0.768 -1.408,0 -2.56,0.64 -1.152,0.64 -1.8347,1.87734 -0.64,1.19466 -0.64,2.944 0,1.792 0.64,3.02933 0.6827,1.23734 1.8347,1.87734 1.152,0.64 2.56,0.64 1.408,0 2.6027,-0.72533 1.1946,-0.768 2.0053,-2.38934 l 6.272,3.2 q -1.1947,3.02934 -4.0533,4.69334 -2.8587,1.664 -6.784,1.664 z m 28.8852,-23.89335 q 2.688,0 4.864,1.10933 2.176,1.06667 3.4134,3.32801 1.28,2.26133 1.28,5.84533 v 13.22668 h -8.1067 v -11.90401 q 0,-2.47467 -1.024,-3.584 -0.9813,-1.152 -2.7733,-1.152 -1.28,0 -2.3467,0.59733 -1.0667,0.55467 -1.664,1.74934 -0.5973,1.19466 -0.5973,3.11467 v 11.17867 h -8.1067 v -31.65869 h 8.1067 v 15.10401 l -1.8774,-1.92 q 1.3227,-2.51733 3.6267,-3.75467 2.304,-1.28 5.2053,-1.28 z m 29.696,0 q 2.688,0 4.864,1.10933 2.176,1.06667 3.4134,3.32801 1.28,2.26133 1.28,5.84533 v 13.22668 h -8.1067 v -11.90401 q 0,-2.47467 -1.024,-3.584 -0.9814,-1.152 -2.7734,-1.152 -1.28,0 -2.3466,0.59733 -1.0667,0.55467 -1.664,1.74934 -0.5974,1.19466 -0.5974,3.11467 v 11.17867 h -8.1066 v -23.12535 h 7.7226 v 6.57067 l -1.4933,-1.92 q 1.3227,-2.51733 3.6267,-3.75467 2.304,-1.28 5.2053,-1.28 z m 26.5387,23.89335 q -3.7974,0 -6.7414,-1.536 -2.944,-1.536 -4.6506,-4.224 -1.664,-2.73067 -1.664,-6.22934 0,-3.49867 1.664,-6.18667 1.7066,-2.688 4.6506,-4.18134 2.944,-1.536 6.7414,-1.536 3.7973,0 6.7413,1.536 2.9867,1.49334 4.6507,4.18134 1.664,2.688 1.664,6.18667 0,3.49867 -1.664,6.22934 -1.664,2.688 -4.6507,4.224 -2.944,1.536 -6.7413,1.536 z m 0,-6.44267 q 1.408,0 2.4746,-0.64 1.1094,-0.64 1.7494,-1.87734 0.64,-1.28 0.64,-3.02933 0,-1.74934 -0.64,-2.944 -0.64,-1.23734 -1.7494,-1.87734 -1.0666,-0.64 -2.4746,-0.64 -1.3654,0 -2.4747,0.64 -1.0667,0.64 -1.7493,1.87734 -0.64,1.19466 -0.64,2.944 0,1.74933 0.64,3.02933 0.6826,1.23734 1.7493,1.87734 1.1093,0.64 2.4747,0.64 z m 16.8106,6.05867 v -31.65869 h 8.1067 v 31.65869 z m 24.96,0.384 q -3.7973,0 -6.7414,-1.536 -2.944,-1.536 -4.6506,-4.224 -1.664,-2.73067 -1.664,-6.22934 0,-3.49867 1.664,-6.18667 1.7066,-2.688 4.6506,-4.18134 2.9441,-1.536 6.7414,-1.536 3.7973,0 6.7413,1.536 2.9867,1.49334 4.6507,4.18134 1.664,2.688 1.664,6.18667 0,3.49867 -1.664,6.22934 -1.664,2.688 -4.6507,4.224 -2.944,1.536 -6.7413,1.536 z m 0,-6.44267 q 1.408,0 2.4747,-0.64 1.1093,-0.64 1.7493,-1.87734 0.64,-1.28 0.64,-3.02933 0,-1.74934 -0.64,-2.944 -0.64,-1.23734 -1.7493,-1.87734 -1.0667,-0.64 -2.4747,-0.64 -1.3653,0 -2.4747,0.64 -1.0666,0.64 -1.7493,1.87734 -0.64,1.19466 -0.64,2.944 0,1.74933 0.64,3.02933 0.6827,1.23734 1.7493,1.87734 1.1094,0.64 2.4747,0.64 z m 28.1173,14.72001 q -3.328,0 -6.3574,-0.768 -2.9866,-0.768 -5.12,-2.26133 l 2.944,-5.67468 q 1.4507,1.15201 3.584,1.79201 2.176,0.68266 4.224,0.68266 3.2854,0 4.736,-1.45066 1.4507,-1.40801 1.4507,-4.13867 v -2.73067 l 0.4267,-6.48534 -0.043,-6.52801 v -4.224 h 7.7227 v 18.90135 q 0,6.57067 -3.5414,9.72801 -3.5413,3.15733 -10.0266,3.15733 z m -1.408,-9.85601 q -3.072,0 -5.6747,-1.36533 -2.56,-1.408 -4.1387,-3.88267 -1.536,-2.51734 -1.536,-5.93067 0,-3.41334 1.536,-5.88801 1.5787,-2.51733 4.1387,-3.88267 2.6027,-1.36533 5.6747,-1.36533 2.944,0 5.0346,1.19467 2.0907,1.152 3.1574,3.62667 1.1093,2.47467 1.1093,6.31467 0,3.84 -1.1093,6.31467 -1.0667,2.47467 -3.1574,3.66934 -2.0906,1.19466 -5.0346,1.19466 z m 1.92,-6.44267 q 1.4506,0 2.56,-0.59733 1.152,-0.59734 1.792,-1.664 0.6826,-1.06667 0.6826,-2.47467 0,-1.408 -0.6826,-2.47467 -0.64,-1.06667 -1.792,-1.62133 -1.1094,-0.59734 -2.56,-0.59734 -1.4507,0 -2.6027,0.59734 -1.152,0.55466 -1.8347,1.62133 -0.64,1.06667 -0.64,2.47467 0,1.408 0.64,2.47467 0.6827,1.06666 1.8347,1.664 1.152,0.59733 2.6027,0.59733 z m 18.2613,7.63734 v -23.12535 h 8.1067 v 23.12535 z m 4.0534,-25.68535 q -2.2187,0 -3.584,-1.23734 -1.3654,-1.23733 -1.3654,-3.072 0,-1.83467 1.3654,-3.072 1.3653,-1.23733 3.584,-1.23733 2.2186,0 3.584,1.19466 1.3653,1.152 1.3653,2.98667 0,1.92 -1.3653,3.2 -1.3227,1.23734 -3.584,1.23734 z m 21.4186,26.06935 q -4.096,0 -7.168,-1.536 -3.0293,-1.57867 -4.736,-4.26667 -1.664,-2.73067 -1.664,-6.18667 0,-3.456 1.6213,-6.14401 1.664,-2.73066 4.5654,-4.224 2.9013,-1.536 6.528,-1.536 3.4133,0 6.2293,1.408 2.816,1.36534 4.48,4.05334 1.664,2.688 1.664,6.528 0,0.42667 -0.043,0.98134 -0.043,0.55466 -0.085,1.024 h -18.304 v -4.26667 h 13.9947 l -3.072,1.19466 q 0.043,-1.57866 -0.5973,-2.73066 -0.5974,-1.152 -1.7067,-1.79201 -1.0667,-0.64 -2.5173,-0.64 -1.4507,0 -2.56,0.64 -1.0667,0.64001 -1.6641,1.83467 -0.5973,1.152 -0.5973,2.73067 v 1.23734 q 0,1.70666 0.6827,2.944 0.7253,1.23733 2.048,1.92 1.3227,0.64 3.1573,0.64 1.7067,0 2.9014,-0.46933 1.2373,-0.512 2.432,-1.536 l 4.2666,4.43733 q -1.664,1.83467 -4.096,2.816 -2.432,0.93867 -5.76,0.93867 z m 23.68,0 q -2.944,0 -5.76,-0.68267 -2.7734,-0.68266 -4.48,-1.70666 l 2.432,-5.54667 q 1.6213,0.98133 3.7973,1.57866 2.176,0.55467 4.2667,0.55467 2.048,0 2.816,-0.42667 0.8107,-0.42666 0.8107,-1.152 0,-0.68266 -0.768,-0.98133 -0.7254,-0.34134 -1.9627,-0.512 -1.1947,-0.17067 -2.6453,-0.384 -1.4507,-0.21334 -2.9441,-0.55467 -1.4506,-0.384 -2.688,-1.10933 -1.1946,-0.768 -1.92,-2.04801 -0.7253,-1.28 -0.7253,-3.24266 0,-2.21867 1.28,-3.92534 1.3227,-1.74933 3.84,-2.73067 2.5174,-1.024 6.144,-1.024 2.432,0 4.9067,0.512 2.5173,0.46933 4.224,1.45067 l -2.432,5.504 q -1.7067,-0.98133 -3.4133,-1.32267 -1.7067,-0.384 -3.2427,-0.384 -2.048,0 -2.9013,0.46934 -0.8107,0.46933 -0.8107,1.152 0,0.68267 0.7253,1.06667 0.7254,0.34133 1.92,0.55466 1.2374,0.17067 2.688,0.384 1.4507,0.17067 2.9014,0.55467 1.4933,0.384 2.688,1.152 1.2373,0.72534 1.9626,2.00534 0.7254,1.23733 0.7254,3.2 0,2.13333 -1.3227,3.84 -1.28,1.70667 -3.84,2.73067 -2.5173,1.024 -6.272,1.024 z"
       id="text203"
       transform="matrix(0.27995027,0,0,0.27995027,-604.29766,813.43327)"
       aria-label="technologies" /></g></svg>
